<svg width="16" height="16" viewBox="0 0 16 16" fill="none" xmlns="http://www.w3.org/2000/svg">
<g id="typcn:home">
<path id="Vector" d="M8 2C8 2 3.876 5.56 1.57133 7.488C1.498 7.5519 1.43891 7.6305 1.39791 7.7187C1.35691 7.80691 1.33491 7.90274 1.33333 8C1.33333 8.17681 1.40357 8.34638 1.5286 8.4714C1.65362 8.59643 1.82319 8.66667 2 8.66667H3.33333V13.3333C3.33333 13.5101 3.40357 13.6797 3.5286 13.8047C3.65362 13.9298 3.82319 14 4 14H6C6.17681 14 6.34638 13.9298 6.4714 13.8047C6.59643 13.6797 6.66667 13.5101 6.66667 13.3333V10.6667H9.33333V13.3333C9.33333 13.5101 9.40357 13.6797 9.52859 13.8047C9.65362 13.9298 9.82319 14 10 14H12C12.1768 14 12.3464 13.9298 12.4714 13.8047C12.5964 13.6797 12.6667 13.5101 12.6667 13.3333V8.66667H14C14.1768 8.66667 14.3464 8.59643 14.4714 8.4714C14.5964 8.34638 14.6667 8.17681 14.6667 8C14.6657 7.90088 14.6423 7.80327 14.598 7.71456C14.5538 7.62586 14.4899 7.54838 14.4113 7.488C12.1227 5.56 8 2 8 2Z" fill="#104A00"/>
</g>
</svg>
