<svg width="378" height="96" viewBox="0 0 378 96" fill="none" xmlns="http://www.w3.org/2000/svg">
<g clip-path="url(#clip0_278_58)">
<path d="M250.035 51.3849C250.002 51.4041 249.99 51.4465 250.01 51.4811C250.86 52.92 253.687 50.9655 254.762 50.4384C254.898 50.3692 255.045 50.3346 255.201 50.3384L256.79 50.3269C256.933 50.323 257.032 50.196 256.991 50.0691C256.055 47.3836 251.442 50.4962 250.039 51.3888L250.035 51.3849Z" fill="white"/>
<path d="M253.432 55.8137C252.862 56.2727 252.855 56.6449 253.415 56.9485C253.543 57.0172 253.696 57.0172 253.825 56.9485C254.967 56.3413 256.11 56.0847 257.249 56.1715C257.649 56.204 257.892 56.0378 257.972 55.6655C258.073 55.221 257.902 54.9969 257.461 55.0005C256.103 55.0077 254.575 54.9029 253.432 55.8137Z" fill="white"/>
<path d="M267.179 67.0781C264.07 69.0989 260.729 69.2346 257.651 67.2671C257.454 67.1411 257.209 67.2138 257.079 67.4416C256.952 67.6693 256.98 67.9795 257.15 68.1588C260.207 71.5123 264.481 69.4673 267.783 68.3914C267.945 68.3381 268.017 68.2121 267.997 68.0037L267.957 67.5773C267.914 67.1217 267.507 66.86 267.179 67.0781Z" fill="white"/>
<path d="M273.891 84.9592C273.213 83.9934 271.991 84.0206 271.321 83.0393C270.6 81.9844 269.876 80.9333 269.159 79.8784C268.127 78.3658 267.006 77.9081 265.378 77.2953C264.981 77.1441 264.996 76.5778 265.401 76.4498C270.814 74.7278 272.049 66.742 271.079 61.9793C270.573 59.4893 268.871 57.5113 268.186 55.0446C267.816 53.7259 267.563 52.2249 267.411 50.5339C267.205 48.2146 260.861 44.0181 258.84 43.0989C256.659 42.1022 254.408 41.3071 252.083 40.7059C249.349 39.9961 247.141 41.214 244.692 42.2612C244.489 42.3465 244.299 42.1177 244.423 41.9354C244.789 41.3924 245.218 40.8843 245.716 40.4034C247.087 39.077 250.634 40.0194 250.039 37.3627C249.692 35.819 248.757 34.2948 247.087 34.0388C246.121 33.8876 245.26 34.1785 244.509 34.9076C242.383 36.9632 240.225 38.9877 238.033 40.9813C237.935 41.0666 237.869 41.183 237.842 41.3109C237.55 42.7382 236.931 43.991 235.988 45.0731C234.909 46.3103 234.485 47.0045 234.625 48.5482C234.637 48.6761 234.586 48.8041 234.493 48.8895C231.436 51.6626 229.863 57.1777 229.407 61.1338C229.13 63.5539 229.426 66.2301 230.295 69.1544C230.762 70.7175 231.257 70.6476 232.81 70.4731C234.423 70.2908 235.902 70.7679 237.238 71.8926C237.643 72.2301 237.604 72.8584 237.168 73.1492C236.019 73.9172 235.116 75.0303 234.462 76.4925C233.632 78.3425 232.125 77.7026 231.21 78.6605C229.091 80.8907 226.798 82.9113 224.321 84.7303C223.499 85.3354 222.693 86.0335 222 86.751C222.576 88.5545 221.899 88.2908 222.81 87.422C223.172 86.9217 223.667 86.4369 224.36 85.9327C226.564 84.3231 228.784 82.7252 231.015 81.135C233.959 79.0406 236.315 82.3684 237.608 84.5713C238.239 85.6495 238.843 86.7394 239.423 87.8331C240.342 88.2209 239.442 88.2326 240.498 87.5616C240.498 87.5616 240.498 87.5616 240.502 87.5616C239.953 86.5144 239.38 85.4789 238.78 84.4511C238.718 84.3386 238.749 84.2882 238.882 84.2959C239.232 84.3153 239.532 84.4239 239.773 84.6256C240.755 85.4362 241.721 86.2856 242.675 87.1544C243.228 87.2591 243.286 87.6818 243.921 87.1466C242.612 86.0257 240.377 83.974 238.921 82.8027C236.786 81.0846 236.292 79.4517 237.094 76.7407C237.55 75.201 239.98 74.7239 240.669 76.4382C240.969 77.179 241.549 78.1331 241.506 78.9398C241.502 79.0251 241.549 79.1104 241.631 79.1492C246.074 81.2126 248.423 85.3276 251.799 88.6321C253.201 89.2449 254.361 88.9773 254.903 88.6553C254.151 87.3212 254.47 86.1266 254.279 84.7459C254.081 83.3341 253.808 81.9378 253.458 80.5571C253.341 80.1033 252.854 79.7349 252.893 79.219C252.932 78.6489 253.337 78.2998 254.093 78.1719C254.252 78.1447 254.396 78.2494 254.424 78.4084C254.93 81.6237 255.424 85.6999 256.729 88.6941C256.776 88.795 256.85 88.8376 256.963 88.8182C257.087 88.7988 257.169 88.6864 257.22 88.4808C257.231 88.4381 257.231 88.3877 257.227 88.3489C257.126 87.5073 257.048 86.6308 256.99 85.7271C256.967 85.3974 257.087 85.1841 257.348 85.0872C257.473 85.0406 257.605 85.1143 257.636 85.2462C257.866 86.2856 258.104 87.325 258.341 88.3645C258.723 88.7523 259.069 88.5196 259.338 88.1356C259.346 88.1279 259.361 88.1162 259.377 88.1085C258.925 83.5668 255.958 82.0348 257.329 78.6411C257.434 78.389 258.641 77.9469 258.91 77.9469C260.323 77.9663 261.885 77.8577 263.158 78.1447C266.846 78.9669 268.525 81.3522 269.638 85.0251C269.681 85.1492 269.759 85.2462 269.872 85.316C270.69 85.7892 271.422 86.1731 272.115 86.6191C272.127 86.623 272.142 86.6269 272.15 86.6308C272.641 86.9566 273.54 86.9566 273.949 86.018C273.961 85.9908 273.984 85.9676 274 85.9443V85.157C273.961 85.0872 273.918 85.0212 273.875 84.9553L273.891 84.9592ZM252.866 76.0426C252.749 76.0581 252.64 76.1124 252.558 76.1938C251.296 77.4892 250.58 79.0445 250.405 80.848C250.37 81.2126 250.533 81.3716 250.899 81.325L252.056 81.1815C252.231 81.1622 252.332 81.2358 252.371 81.4065L253.388 85.9482C253.462 86.2856 253.228 86.6191 252.881 86.6579L252.55 86.6967C252.43 86.7122 252.325 86.6812 252.235 86.5998C250.49 85.1298 248.952 83.2022 247.437 81.8215C245.256 79.8435 239.769 74.9566 241.775 72.711C242.161 72.2805 242.807 72.1835 243.298 71.7801C243.411 71.6948 243.442 71.5785 243.399 71.4427L242.943 70.0465C242.897 69.903 243.013 69.7595 243.157 69.775L244.84 69.9262C245.221 69.9611 245.541 69.6431 245.502 69.2591C245.354 67.8047 243.122 68.7317 242.34 68.5533C239.843 67.9831 237.402 65.6638 238.122 62.9683C238.414 61.8862 239.213 61.2152 240.521 60.9631C240.657 60.936 240.79 60.9554 240.911 61.0252L243.376 62.3632C243.765 62.5766 244.217 62.2197 244.1 61.7931C243.991 61.4091 243.769 61.1415 243.426 60.9941C242.741 60.7033 242.862 59.6987 243.594 59.5746C243.921 59.5164 244.162 59.3729 244.31 59.1402C244.505 58.8377 244.287 58.4344 243.929 58.4344H242.83C242.632 58.4344 242.585 58.3452 242.69 58.1784L243.866 56.2818C243.917 56.2042 243.925 56.1073 243.897 56.022C243.625 55.1571 242.48 54.8856 241.81 54.5714C241.685 54.5171 241.608 54.3891 241.615 54.2495L241.701 52.4499C241.709 52.2831 241.767 52.1474 241.88 52.0271C242.164 51.7324 242.254 51.3949 242.153 51.0187C242.126 50.9179 242.055 50.8597 241.946 50.8442C241.674 50.8015 241.502 50.6736 241.428 50.4525C241.265 49.9716 241.752 49.4247 242.09 49.1105C242.277 48.9321 242.2 48.618 241.946 48.552C241.214 48.3581 240.837 47.8656 240.821 47.0782C240.817 46.9347 240.887 46.7951 241.008 46.7098C241.841 46.1319 242.421 45.3601 242.745 44.3943C242.788 44.2625 242.897 44.1655 243.029 44.1345C245.229 43.5876 249.108 41.4157 251.086 41.7608C254.755 42.4008 259.498 43.8707 262.232 46.5081C262.341 46.6167 262.306 46.8029 262.161 46.861L260.506 47.5165C260.339 47.5824 260.249 47.7647 260.296 47.9392C260.343 48.1138 260.518 48.2224 260.693 48.1913C263.116 47.7763 264.887 48.6102 266.013 50.7046C266.208 51.0692 266.13 51.5229 265.826 51.7983C264.798 52.733 263.61 53.2683 262.259 53.404C262.115 53.4156 262.056 53.4932 262.084 53.6367C262.376 55.4053 263.147 56.8907 264.397 58.0892C265.561 59.2062 266.141 60.009 266.963 61.2036C267.216 61.572 267.037 62.0801 266.609 62.212C265.164 62.6619 262.076 60.9825 262.084 63.6664C262.084 63.8177 262.158 63.8797 262.309 63.8526C263.606 63.6005 264.903 63.4259 266.2 63.3329C267.52 63.232 268.447 62.689 268.56 61.3704C268.571 61.2579 268.536 61.1493 268.474 61.064C266.971 58.989 265.168 57.5811 263.894 55.2657C263.774 55.0485 263.836 54.7809 264.031 54.6335L266.157 53.0162C266.406 52.8261 266.768 53.0045 266.761 53.3187L266.718 55.2967C266.714 55.4247 266.757 55.5527 266.835 55.6574C270.343 60.521 270.791 67.2811 267.948 72.5132C267.353 73.603 266.165 74.7782 264.763 74.8752C260.783 75.1428 256.819 75.5345 252.866 76.0503V76.0426Z" fill="white"/>
<path d="M360.394 81.9883C362.324 82.1764 363.158 80.0364 363.433 79.3294C363.64 78.7953 364.112 77.4564 363.976 76.6027C363.882 76.031 363.618 75.5834 363.214 75.3127C362.743 74.9967 362.098 74.9178 361.355 75.087C361.152 75.1321 361.023 75.3352 361.072 75.5383C361.118 75.7414 361.321 75.8693 361.525 75.8204C362.053 75.7 362.501 75.7414 362.792 75.937C363.026 76.0949 363.173 76.3582 363.233 76.723C363.305 77.1743 363.109 78.092 362.735 79.0548C362.113 80.6532 361.378 81.3452 360.435 81.2362C360.303 81.2211 359.911 81.112 359.56 80.9202C359.376 80.8187 359.149 80.8864 359.047 81.0669C358.946 81.2474 359.014 81.4769 359.195 81.5784C359.606 81.8041 360.084 81.9507 360.345 81.9808C360.36 81.9808 360.375 81.9808 360.394 81.9846V81.9883Z" fill="white" stroke="white" stroke-miterlimit="10"/>
<path d="M342.228 73C342.228 73 342.243 73 342.251 73C342.391 73 342.505 72.8143 342.507 72.5821C342.512 71.0539 342.771 68.9051 342.992 67.5289C343.027 67.3052 342.946 67.073 342.812 67.0139C342.677 66.9548 342.538 67.0899 342.502 67.3136C342.264 68.8038 342.005 70.9737 342 72.5778C342 72.7974 342.099 72.9789 342.228 73Z" fill="white" stroke="white" stroke-miterlimit="10"/>
<path d="M347.553 86.9982C347.773 87.0181 347.968 86.8674 347.997 86.6532C348.025 86.435 347.867 86.2367 347.643 86.2089C346.467 86.0661 345.108 85.0904 344.014 83.6029C342.126 81.0366 341.39 77.6255 342.053 74.4761C342.097 74.2619 341.955 74.0516 341.735 74.008C341.512 73.9644 341.3 74.1032 341.255 74.3174C340.547 77.677 341.333 81.3182 343.351 84.0631C344.595 85.7528 346.121 86.8237 347.541 86.9943C347.541 86.9943 347.549 86.9943 347.553 86.9943V86.9982Z" fill="white" stroke="white" stroke-miterlimit="10"/>
<path d="M353.506 71.9977C353.695 72.018 353.885 71.9015 353.966 71.6889C354.06 71.4307 353.952 71.132 353.722 71.0257L351.625 70.0385C351.395 69.9321 351.133 70.0536 351.034 70.3118C350.94 70.57 351.048 70.8687 351.278 70.9751L353.375 71.9623C353.42 71.9825 353.461 71.9927 353.506 71.9977Z" fill="white" stroke="white" stroke-miterlimit="10"/>
<path d="M344.538 69.9986C344.724 70.0119 344.906 69.929 344.974 69.7864C345.054 69.614 344.944 69.4251 344.728 69.3588L343.572 69.0206C343.352 68.9576 343.111 69.0438 343.026 69.2129C342.946 69.3853 343.056 69.5743 343.272 69.6406L344.428 69.9787C344.461 69.9887 344.5 69.9953 344.538 69.9986Z" fill="white" stroke="white" stroke-miterlimit="10"/>
<path d="M345.389 77.8324C345.552 77.848 345.712 77.7582 345.783 77.6021C345.869 77.4069 345.783 77.1726 345.584 77.0868C345.463 77.0321 345.357 76.9931 345.268 76.9579C345.049 76.872 344.936 76.8291 344.745 76.6456C344.589 76.4973 344.343 76.5051 344.195 76.6612C344.046 76.8174 344.054 77.0633 344.21 77.2117C344.515 77.5006 344.737 77.5864 344.991 77.684C345.073 77.7153 345.162 77.7504 345.272 77.7973C345.311 77.8168 345.353 77.8246 345.392 77.8285L345.389 77.8324Z" fill="white" stroke="white" stroke-miterlimit="10"/>
<path d="M344.559 76.998C344.799 77.0141 345.039 76.9333 345.162 76.7878C345.346 76.5655 345.488 76.323 345.641 76.0643C345.734 75.9107 345.832 75.745 345.949 75.5672C346.084 75.3611 345.943 75.1226 345.629 75.0337C345.315 74.9448 344.953 75.0377 344.817 75.2438C344.694 75.4298 344.59 75.6036 344.491 75.7652C344.344 76.0077 344.221 76.2219 344.073 76.3998C343.913 76.5978 344.024 76.8403 344.319 76.9454C344.393 76.9737 344.473 76.9858 344.553 76.9939L344.559 76.998Z" fill="white" stroke="white" stroke-miterlimit="10"/>
<path d="M347.929 81.9024C348.21 81.9298 348.487 81.9298 348.748 81.9024C348.963 81.879 349.115 81.6838 349.091 81.4691C349.068 81.2544 348.873 81.1022 348.658 81.1256C347.667 81.2427 346.345 80.782 345.709 80.0989C345.564 79.9427 345.314 79.931 345.158 80.0793C345.002 80.2277 344.991 80.4736 345.139 80.6298C345.779 81.3169 346.879 81.8009 347.929 81.9024Z" fill="white" stroke="white" stroke-miterlimit="10"/>
<path d="M349.212 87.7278C350.235 87.8254 351.288 87.6653 352.225 87.2554C352.424 87.1695 352.509 86.9392 352.424 86.7401C352.338 86.541 352.108 86.4551 351.909 86.541C350.804 87.029 349.509 87.111 348.35 86.7713C348.139 86.7089 347.925 86.8299 347.866 87.0368C347.804 87.2437 347.925 87.4623 348.132 87.5209C348.483 87.6224 348.846 87.6926 349.212 87.7278Z" fill="white" stroke="white" stroke-miterlimit="10"/>
<path d="M343.011 72.8729C342.931 73.4206 343.314 73.9213 343.856 73.9917C344.404 74.0622 344.91 73.6748 344.989 73.1271C345.069 72.5794 344.686 72.0787 344.144 72.0083C343.596 71.9378 343.09 72.3252 343.011 72.8729Z" fill="white" stroke="white" stroke-miterlimit="10"/>
<path d="M350.011 74.8729C349.931 75.4206 350.314 75.9213 350.856 75.9917C351.404 76.0622 351.91 75.6748 351.989 75.1271C352.069 74.5794 351.686 74.0787 351.144 74.0083C350.596 73.9378 350.09 74.3252 350.011 74.8729Z" fill="white" stroke="white" stroke-miterlimit="10"/>
<path d="M349.504 71.9984C349.658 72.0103 349.816 71.9548 349.915 71.8359C350.06 71.6575 350.015 71.4117 349.816 71.2809C349.513 71.0907 349.07 70.7299 348.676 70.4088C348.319 70.1155 348.057 69.7468 347.926 69.3425C347.727 68.736 347.551 68.1097 347.411 67.4913C347.103 66.1475 346.931 64.7641 346.904 63.3885C346.904 63.1705 346.696 62.9961 346.443 63.0001C346.194 63.0001 345.996 63.1864 346 63.4044C346.027 64.8275 346.204 66.2545 346.525 67.6499C346.674 68.2921 346.85 68.9382 347.058 69.5645C347.239 70.1076 347.582 70.6031 348.062 70.9916C348.473 71.3285 348.943 71.7051 349.287 71.9231C349.355 71.9667 349.431 71.9905 349.508 71.9984H349.504Z" fill="white" stroke="white" stroke-miterlimit="10"/>
<path d="M355.924 85.9226C358.549 86.1768 361.427 85.903 364.048 83.5955C365.79 82.0624 367.45 77.6976 367.832 75.3627C368.375 72.0226 367.536 65.4325 366.231 62.769C364.923 60.0978 363.407 58.3221 360.646 56.2101C359.341 55.2167 355.123 53.3824 353.338 54.2077L350.702 55.4279L350.253 55.2715C349.37 54.9625 347.32 55.9168 346.753 56.4018C345.738 57.274 344.883 58.4668 344.129 59.5189L343.875 59.8709C342.184 62.2136 342.008 66.8013 342 66.9969C341.996 67.1338 342.063 67.2628 342.176 67.3372C342.242 67.3802 342.375 67.4467 342.637 67.5757C342.762 67.6383 342.883 67.697 342.922 67.7204C343.105 67.83 343.348 67.7713 343.457 67.5875C343.566 67.4036 343.508 67.1651 343.328 67.0516C343.281 67.0243 343.141 66.95 342.984 66.8756C342.922 66.8444 342.856 66.8131 342.793 66.7818C342.852 65.8157 343.16 62.1902 344.504 60.3285L344.758 59.9726C345.488 58.9557 346.316 57.8019 347.257 56.9924C347.808 56.5191 349.534 55.8503 349.991 56.0068L350.593 56.2141C350.686 56.2453 350.792 56.2414 350.886 56.1984L353.666 54.9117C355.002 54.2937 358.849 55.8151 360.173 56.8242C362.829 58.854 364.282 60.5553 365.532 63.1054C366.762 65.6124 367.575 72.0696 367.063 75.2297C366.711 77.4004 365.126 81.6048 363.536 83.001C361.326 84.9448 358.861 85.5471 355.119 85.0309C356.654 81.5578 358.22 77.9636 357.697 73.8608C357.682 73.7513 357.627 73.6575 357.537 73.591C357.447 73.5284 357.338 73.5049 357.232 73.5245L357.025 73.5675C356.557 73.4111 356.092 73.2703 355.6 73.1177C354.42 72.7579 353.202 72.3864 351.878 71.7801C351.37 71.5455 350.944 71.346 350.581 71.1661C350.39 71.0722 350.155 71.1505 350.058 71.3421C349.96 71.5337 350.042 71.7684 350.233 71.8662C350.6 72.05 351.03 72.2534 351.55 72.492C352.924 73.1216 354.166 73.501 355.369 73.8687C355.889 74.029 356.381 74.1776 356.873 74.3419C356.904 74.3536 356.932 74.3575 356.967 74.3615C357.322 78.1161 355.881 81.3779 354.358 84.8197L354.198 85.1795C354.147 85.289 354.155 85.4181 354.213 85.5237C354.272 85.6293 354.373 85.7036 354.494 85.7231C354.963 85.7974 355.444 85.8639 355.932 85.9109L355.924 85.9226Z" fill="white" stroke="white" stroke-miterlimit="10"/>
<path d="M344.313 67.9982C344.476 68.0153 344.633 67.9092 344.673 67.7416C344.853 67.0299 345.027 66.4722 345.2 66.0343C345.455 65.3945 345.696 64.9702 345.855 64.6896C345.893 64.6212 345.927 64.563 345.957 64.5083C346.049 64.3441 345.988 64.1353 345.821 64.043C345.658 63.9506 345.451 64.0122 345.359 64.1798C345.332 64.2311 345.298 64.2859 345.264 64.3509C345.095 64.6486 344.84 65.0968 344.568 65.7777C344.381 66.243 344.201 66.828 344.011 67.5705C343.963 67.7518 344.075 67.94 344.256 67.9879C344.273 67.9914 344.289 67.9948 344.306 67.9982H344.313Z" fill="white" stroke="white" stroke-miterlimit="10"/>
<path d="M351.574 71.9962C351.682 72.0076 351.794 71.9736 351.88 71.8942C352.034 71.7507 352.042 71.5127 351.891 71.3616C350.557 69.9942 349.672 67.4861 349.784 65.3972C349.795 65.1894 349.633 65.0119 349.417 65.0006C349.204 64.9892 349.022 65.1479 349.011 65.3594C348.887 67.6372 349.861 70.3795 351.33 71.8829C351.396 71.9509 351.485 71.9887 351.574 72V71.9962Z" fill="white" stroke="white" stroke-miterlimit="10"/>
<path d="M353.55 72.9966C353.657 73.0034 353.763 72.9795 353.853 72.918C354.025 72.7984 354.05 72.5832 353.907 72.4363C352.747 71.2748 352.006 69.8092 351.818 68.3061C351.793 68.1182 351.592 67.9815 351.367 68.002C351.142 68.0225 350.978 68.1899 351.002 68.3778C351.207 70.0142 352.014 71.613 353.276 72.877C353.349 72.9488 353.448 72.9898 353.55 73V72.9966Z" fill="white" stroke="white" stroke-miterlimit="10"/>
<path d="M355.251 43L355.167 42.315C355.115 41.8736 354.85 41.2571 354.601 41.1544C354.573 41.143 354.517 41.1201 354.388 41.2077C353.915 41.5311 353.798 41.7024 353.798 41.7062L353.718 41.8584L353.549 41.8698L352.839 41.9764C352.71 41.9954 352.578 41.9535 352.49 41.8622C352.273 41.6377 352.333 41.2495 352.883 39.2631L352.999 38.8331C353.036 38.5972 352.642 37.3719 352.482 37.056C352.048 36.1922 351.41 35.9981 350.447 35.7013C349.829 35.511 349.13 35.2979 348.347 34.8565L348.319 34.8375C347.874 34.5216 347.127 34.183 346.341 33.8253C345.032 33.2278 343.547 32.5543 342.837 31.7133C341.299 29.8981 340.842 28.8212 340.994 27.0289C340.32 27.4741 340.043 27.8128 339.525 28.4483C339.345 28.669 339.136 28.9239 338.871 29.2284C337.984 30.2558 337.406 30.8152 336.7 31.0207C336.535 31.0664 336.363 31.0397 336.226 30.9446C336.09 30.8495 336.005 30.6972 336.001 30.5374C335.965 28.2656 336.708 26.7321 337.434 25.5258C337.952 24.6657 338.69 24.1254 339.469 23.5508C340.043 23.1284 340.633 22.6908 341.195 22.0933C341.464 21.8079 344.145 19.7606 346.774 20.0232C349.736 19.8938 352.293 20.4951 354.581 21.8574C357.178 23.4024 358.458 25.1262 358.494 27.124C358.538 27.1659 358.655 27.2382 358.751 27.3029C359.028 27.4779 359.441 27.7405 359.919 28.2352C360.914 29.2664 361.115 32.4934 360.947 34.0117C360.818 35.1762 358.667 39.7084 355.757 42.5091L355.247 43H355.251ZM354.549 40.4808C354.661 40.4808 354.773 40.5037 354.882 40.5493C355.295 40.7244 355.556 41.1886 355.705 41.6034C358.157 39.012 360.144 34.9821 360.26 33.9432C360.437 32.3602 360.156 29.4567 359.413 28.6842C358.996 28.2504 358.635 28.0221 358.374 27.8546C358.073 27.6644 357.812 27.4969 357.808 27.1697C357.788 25.3773 356.648 23.8666 354.224 22.4206C352.052 21.1268 349.624 20.5636 346.794 20.6891H346.766H346.738C344.567 20.4532 342.07 22.1732 341.729 22.5385C341.123 23.1855 340.505 23.6421 339.907 24.0797C339.152 24.6353 338.502 25.1148 338.048 25.8606C337.358 27.0022 336.72 28.3303 336.708 30.3167C337.169 30.1036 337.643 29.6203 338.337 28.8136C338.594 28.5168 338.799 28.2656 338.979 28.0449C339.65 27.2268 339.983 26.8196 341.247 26.089L341.877 25.7274L341.773 26.4162C341.468 28.4787 341.769 29.3882 343.382 31.2985C343.993 32.0177 345.401 32.6608 346.646 33.2278C347.456 33.5969 348.223 33.947 348.721 34.2933C349.427 34.6929 350.081 34.8908 350.659 35.0696C351.671 35.3778 352.546 35.648 353.108 36.7668C353.196 36.9419 353.802 38.5021 353.67 38.9929L353.549 39.423C353.405 39.9367 353.168 40.8043 353.088 41.2609L353.292 41.2305C353.401 41.1087 353.605 40.9185 353.975 40.6673C354.159 40.5417 354.352 40.477 354.545 40.477L354.549 40.4808Z" fill="white" stroke="white" stroke-miterlimit="10"/>
<path d="M353.104 47C352.622 47 352.271 46.8457 352.132 46.7331C351.993 46.6205 351.957 46.3953 352.057 46.2327C352.154 46.07 352.347 46.0283 352.486 46.1451C352.693 46.3161 354.176 46.7206 355.71 44.4186C356.25 43.6095 356.407 42.5169 356.382 41.9748C356.364 41.5578 356.246 41.2408 356.039 41.0323C355.778 40.7779 355.352 40.6737 354.841 40.7446C354.673 40.7696 354.52 40.6278 354.498 40.4276C354.477 40.2316 354.598 40.0523 354.77 40.0273C355.463 39.9313 356.039 40.0898 356.435 40.4818C356.782 40.8196 356.971 41.3117 356.997 41.9373C357.032 42.7129 356.796 43.9599 356.192 44.8606C355.045 46.583 353.894 47 353.097 47H353.104Z" fill="white" stroke="white" stroke-miterlimit="10"/>
<path d="M340.671 52.996C340.637 52.996 340.603 52.9919 340.569 52.9798C335.639 51.2617 333.311 46.4864 334.178 39.8841C334.189 39.8195 335.011 35.4838 335.932 32.2492C335.985 32.0637 336.168 31.9588 336.343 32.0153C336.518 32.0718 336.616 32.2653 336.563 32.4509C335.654 35.6532 334.836 39.9607 334.829 40.005C333.71 48.5232 338.073 51.3787 340.774 52.3224C340.945 52.3829 341.04 52.5805 340.983 52.762C340.938 52.9072 340.808 53 340.671 53V52.996Z" fill="white" stroke="white" stroke-miterlimit="10"/>
<path d="M350.338 49.9962C350.256 49.9962 350.174 49.9657 350.108 49.9085C349.971 49.7828 349.963 49.577 350.092 49.4436C351.346 48.1288 351.986 46.955 352.357 46.189C352.435 46.0251 352.638 45.9527 352.806 46.0327C352.974 46.1089 353.048 46.3071 352.966 46.471C352.576 47.2789 351.904 48.5099 350.588 49.8933C350.522 49.9619 350.432 50 350.342 50L350.338 49.9962Z" fill="white" stroke="white" stroke-miterlimit="10"/>
<path d="M339.155 42C339.109 42 339.064 41.9889 339.022 41.9703C338.605 41.7658 338.41 41.5725 338.097 41.2491C337.989 41.1376 337.968 40.9629 338.048 40.8254C338.379 40.2566 338.542 39.8998 338.713 39.5243C338.883 39.1489 339.061 38.7586 339.412 38.1601C339.506 38.0003 339.701 37.952 339.85 38.0523C340 38.1527 340.045 38.3609 339.951 38.5207C339.621 39.0894 339.457 39.4463 339.287 39.8217C339.141 40.1451 338.988 40.4797 338.723 40.948C338.904 41.1265 339.04 41.2305 339.287 41.3532C339.447 41.4313 339.516 41.632 339.443 41.803C339.391 41.9257 339.276 42 339.155 42Z" fill="white" stroke="white" stroke-miterlimit="10"/>
<path d="M346.593 36C346.453 36 346.321 35.939 346.243 35.8284C346.076 35.5958 345.87 35.3898 345.629 35.2182C345.168 34.8903 344.673 34.7606 344.34 34.711C344.116 34.6767 343.967 34.4898 344.006 34.2953C344.046 34.1008 344.261 33.9712 344.484 34.0055C345.098 34.1008 345.673 34.3258 346.146 34.6614C346.457 34.8826 346.729 35.1496 346.94 35.4508C347.058 35.6186 346.997 35.8398 346.804 35.9428C346.738 35.9771 346.663 35.9962 346.589 35.9962L346.593 36Z" fill="white" stroke="white" stroke-miterlimit="10"/>
<path d="M339.572 33C339.495 33 339.414 32.9828 339.342 32.9485C338.999 32.7836 338.461 32.5981 337.861 32.6634C337.762 32.6737 337.658 32.6943 337.559 32.7184C337.337 32.7733 337.093 32.684 337.021 32.5123C336.949 32.344 337.066 32.1585 337.292 32.1036C337.441 32.0658 337.59 32.0383 337.739 32.0211C338.601 31.925 339.337 32.1757 339.802 32.3989C340.001 32.4951 340.06 32.6943 339.933 32.8454C339.852 32.9416 339.717 32.9931 339.577 32.9931L339.572 33Z" fill="white" stroke="white" stroke-miterlimit="10"/>
<path d="M342.85 47C342.818 47 342.788 46.9778 342.76 46.9335C342.385 46.3134 342.117 45.4185 342.004 44.4129C341.984 44.2357 342.034 44.0541 342.115 44.0098C342.195 43.9655 342.277 44.0762 342.297 44.2534C342.391 45.0951 342.623 45.8792 342.94 46.3975C343.006 46.5083 343.02 46.7165 342.97 46.8627C342.94 46.9513 342.896 46.9956 342.85 46.9956V47Z" fill="white" stroke="white" stroke-miterlimit="10"/>
<path d="M344.659 40C344.593 40 344.527 39.9708 344.468 39.9065C344.295 39.7196 344.189 39.5619 344.104 39.4334C344.016 39.3049 343.953 39.2114 343.839 39.1121C343.759 39.1296 343.678 39.1238 343.593 39.1121C343.556 39.1121 343.505 39.1121 343.472 39.1121C343.329 39.2114 343.159 39.1413 343.064 38.931C342.954 38.6915 342.99 38.3527 343.141 38.1833C343.284 38.0197 343.453 38.0314 343.623 38.0431C343.659 38.0431 343.711 38.0431 343.744 38.0431C343.832 37.9847 343.931 37.9847 344.019 38.0489C344.306 38.2592 344.438 38.452 344.563 38.6448C344.641 38.7558 344.721 38.8784 344.854 39.0186C345.008 39.188 345.045 39.521 344.942 39.7663C344.876 39.9182 344.769 40 344.663 40H344.659Z" fill="white" stroke="white" stroke-miterlimit="10"/>
<path d="M337.595 37C337.468 37 337.345 36.9516 337.266 36.8652C337.24 36.834 337.165 36.7891 337.1 36.751C337.056 36.7234 337.008 36.6923 336.96 36.6612C336.89 36.6681 336.833 36.6715 336.78 36.675C336.693 36.6784 336.627 36.6819 336.491 36.7061C336.272 36.7441 336.058 36.6369 336.01 36.4641C335.962 36.2912 336.097 36.1218 336.316 36.0837C336.509 36.0491 336.623 36.0422 336.728 36.0388C336.815 36.0353 336.881 36.0319 337.017 36.0077C337.174 35.98 337.341 36.0284 337.433 36.1356C337.459 36.1667 337.533 36.2117 337.599 36.2497C337.708 36.3154 337.831 36.3915 337.927 36.4986C338.054 36.6404 338.01 36.8409 337.831 36.9412C337.761 36.9793 337.678 37 337.599 37H337.595Z" fill="white" stroke="white" stroke-miterlimit="10"/>
<path d="M340.045 45.9969C339.931 45.9969 339.828 45.9357 339.789 45.8378C339.742 45.7153 339.821 45.5868 339.959 45.547C340.191 45.4827 340.351 45.3847 340.419 45.2715C340.444 45.2286 340.454 45.1888 340.458 45.1521C339.518 44.9807 338.827 44.8215 338.122 44.4267C337.998 44.3563 337.962 44.2124 338.044 44.1053C338.126 43.9981 338.293 43.9675 338.418 44.0379C339.041 44.3869 339.618 44.5307 340.757 44.7328C340.846 44.7481 340.921 44.8032 340.953 44.8797C340.967 44.9103 341.074 45.1766 340.91 45.4674C340.778 45.7031 340.515 45.8776 340.134 45.9878C340.105 45.9969 340.077 46 340.048 46L340.045 45.9969Z" fill="white" stroke="white" stroke-miterlimit="10"/>
<path d="M343.88 53C343.356 53 342.824 52.9595 342.292 52.8741C342.108 52.8427 341.979 52.6494 342.003 52.4381C342.03 52.2269 342.198 52.0785 342.382 52.1055C343.712 52.3168 345.062 52.2449 346.188 51.9032C347.362 51.5482 348.461 50.9324 349.459 50.0783C349.607 49.948 349.818 49.9839 349.932 50.1592C350.045 50.33 350.014 50.5728 349.861 50.7031C348.794 51.6156 347.616 52.2718 346.36 52.6539C345.602 52.8831 344.753 53 343.876 53H343.88Z" fill="white" stroke="white" stroke-miterlimit="10"/>
<path d="M331.665 70.996C331.641 70.996 331.616 71 331.592 71C330.576 70.9642 329.609 70.4265 329.062 69.5901C328.944 69.4109 329.001 69.1719 329.184 69.0604C329.368 68.9449 329.613 69.0007 329.727 69.1799C330.127 69.7972 330.869 70.2074 331.62 70.2353C331.837 70.2433 332.008 70.4185 332 70.6336C331.992 70.8208 331.849 70.9721 331.665 71V70.996Z" fill="white" stroke="white" stroke-miterlimit="10"/>
<path d="M331.537 75.9949C331.481 76.0027 331.425 76.0027 331.373 75.9871C331.217 75.9483 331.097 75.828 331.061 75.6727C331.028 75.5174 331.004 75.3039 330.976 75.0554C330.94 74.7448 330.864 74.0732 330.748 73.7859C330.636 73.9023 330.359 74.2052 330.203 74.376C329.979 74.6206 329.899 74.7099 329.859 74.7487C329.47 75.1175 328.869 75.1602 328.432 74.8652C328.372 74.8457 328.316 74.8108 328.264 74.7681C328.104 74.6245 327.863 74.4109 328.284 71.9185C328.296 71.6467 327.735 70.3073 327.531 69.9735C326.473 68.2458 326.221 65.0585 326.81 60.9976C326.842 60.7763 327.054 60.621 327.286 60.6521C327.515 60.6831 327.675 60.8889 327.643 61.1141C327.086 64.9342 327.31 68.0129 328.256 69.5619C328.376 69.7599 329.218 71.4643 329.117 72.0544C328.917 73.2424 328.873 73.9295 328.893 74.1858C329.001 74.2789 329.161 74.2712 329.266 74.1741C329.298 74.1392 329.422 74.0033 329.566 73.8441C329.991 73.3782 330.155 73.1997 330.231 73.1375C330.58 72.8425 330.88 72.893 331.028 72.9512C331.489 73.1259 331.645 73.7238 331.754 74.5662C334.081 71.4293 335.119 67.5897 335.139 66.4755V66.3785C335.167 64.8022 335.239 60.6171 334.354 59.8329C333.849 59.3826 333.428 59.1613 333.12 58.9982C332.771 58.8119 332.443 58.6372 332.403 58.2489C332.194 56.2263 330.78 54.6345 327.947 53.2291C325.411 51.9713 322.663 51.5636 319.542 51.979C319.522 51.979 319.498 51.9829 319.474 51.979C317.05 51.9247 314.473 54.0949 314.133 54.5452C313.528 55.3372 312.859 55.9429 312.27 56.4747C311.493 57.1735 310.824 57.7792 310.403 58.6643C310.066 59.3709 309.89 60.6831 309.838 61.677C309.826 61.9022 309.63 62.073 309.397 62.0613C309.165 62.0497 308.989 61.8595 309.001 61.6343C309.029 61.1141 309.157 59.3399 309.642 58.3188C310.13 57.29 310.896 56.6028 311.701 55.873C312.294 55.3411 312.903 54.7898 313.464 54.0561C313.732 53.7028 316.509 51.1172 319.466 51.1599C322.747 50.7289 325.648 51.1676 328.336 52.4954C331.381 54.0056 332.988 55.8419 333.24 58.1092C333.296 58.1519 333.424 58.2179 333.529 58.2761C333.853 58.4469 334.346 58.7109 334.927 59.2234C335.952 60.1318 336.041 63.2027 335.989 66.3862V66.4833C335.964 67.8149 334.726 72.4077 331.794 75.8551C331.726 75.9328 331.633 75.9833 331.533 75.9988L331.537 75.9949Z" fill="white" stroke="white" stroke-miterlimit="10"/>
<path d="M326.653 59.6953C326.554 59.708 326.452 59.6921 326.365 59.6444C324.447 58.6394 320.331 57.3831 317.187 57.7234C316.829 57.7616 316.474 57.7584 316.132 57.7521C314.588 57.7298 312.819 58.8016 311.736 59.8766C311.59 60.0197 311.33 60.042 311.153 59.9243C310.976 59.8066 310.948 59.5967 311.094 59.4536C312.212 58.3405 314.202 57.0524 316.12 57.0842C316.47 57.0905 316.774 57.0937 317.073 57.0619C320.425 56.6962 324.786 58.0256 326.81 59.0847C327.003 59.1864 327.058 59.3932 326.932 59.5458C326.865 59.6285 326.759 59.6794 326.649 59.6953H326.653Z" fill="white" stroke="white" stroke-miterlimit="10"/>
<path d="M329.687 79.9605C328.959 80.0724 328.404 79.9232 328.198 79.803C328.009 79.6911 327.943 79.4465 328.054 79.2558C328.165 79.0652 328.408 78.9988 328.597 79.1108C328.881 79.2766 330.815 79.5543 332.555 76.8351C333.164 75.8818 333.262 74.6507 333.18 74.058C333.114 73.5979 332.937 73.2621 332.649 73.0549C332.291 72.802 331.74 72.7398 331.09 72.8725C330.876 72.9264 330.666 72.7771 330.621 72.5616C330.576 72.3461 330.716 72.1347 330.93 72.0891C331.806 71.9025 332.559 72.0103 333.106 72.3999C333.579 72.7357 333.871 73.2538 333.966 73.9419C334.085 74.7958 333.904 76.1968 333.225 77.2662C332.016 79.1564 330.691 79.803 329.696 79.9605H329.687Z" fill="white" stroke="white" stroke-miterlimit="10"/>
<path d="M319.172 87.8997C318.649 87.9813 318.097 88.0162 317.518 87.9929C316.019 87.9385 314.528 87.4529 313.213 86.5825C309.298 83.9949 307.751 80.4049 308.032 74.5848C308.032 74.5848 308.047 73.664 308.122 72.3507C308.134 72.1448 308.307 71.9855 308.506 72.001C308.705 72.0127 308.859 72.1914 308.844 72.3973C308.769 73.695 308.754 74.6003 308.754 74.6081C308.483 80.2107 309.888 83.4937 313.6 85.9492C314.806 86.7496 316.17 87.1964 317.541 87.243C318.266 87.2702 318.942 87.2081 319.555 87.0566C319.746 87.006 319.945 87.1343 319.991 87.3363C320.036 87.5383 319.915 87.7404 319.72 87.787C319.54 87.8297 319.356 87.8686 319.168 87.8958L319.172 87.8997Z" fill="white" stroke="white" stroke-miterlimit="10"/>
<path d="M324.288 85.7516C324.136 85.775 323.979 85.7047 323.901 85.5642C323.8 85.3846 323.866 85.1543 324.046 85.0528C326.441 83.7099 327.433 81.3988 327.842 79.6967C327.889 79.4937 328.092 79.3688 328.295 79.4195C328.498 79.4664 328.623 79.6733 328.572 79.8724C328.127 81.7228 327.046 84.2369 324.413 85.7086C324.374 85.7321 324.331 85.7438 324.288 85.7516Z" fill="white" stroke="white" stroke-miterlimit="10"/>
<path d="M312.417 75.9961C312.36 76.0044 312.301 76.0003 312.241 75.9755C311.752 75.7735 311.512 75.555 311.132 75.1922C311.002 75.0685 310.963 74.8541 311.037 74.6768C311.357 73.9387 311.505 73.477 311.664 72.9946C311.822 72.5122 311.984 72.0092 312.322 71.2299C312.41 71.0238 312.628 70.9413 312.804 71.0444C312.98 71.1475 313.05 71.4031 312.962 71.6092C312.642 72.3473 312.494 72.809 312.336 73.2914C312.198 73.7079 312.061 74.1367 311.808 74.7469C312.026 74.9448 312.188 75.0561 312.48 75.1798C312.667 75.2581 312.765 75.4973 312.698 75.7158C312.652 75.8683 312.54 75.9673 312.413 75.992L312.417 75.9961Z" fill="white" stroke="white" stroke-miterlimit="10"/>
<path d="M332.701 70.9953C332.639 71.0073 332.577 70.9953 332.515 70.9714C330.347 69.9991 328.666 67.9469 328.014 65.4882C327.959 65.285 328.069 65.0698 328.255 65.014C328.441 64.9582 328.637 65.0738 328.688 65.277C329.271 67.4806 330.839 69.3934 332.781 70.2621C332.96 70.3418 333.047 70.5689 332.974 70.7642C332.927 70.8917 332.821 70.9794 332.701 70.9993V70.9953Z" fill="white" stroke="white" stroke-miterlimit="10"/>
<path d="M321.602 67.9952C321.381 68.0248 321.161 67.9139 321.09 67.7289C321.046 67.6142 320.905 67.3219 320.543 67.1295C320.163 66.926 319.607 66.7928 319.474 66.778C319.227 66.7817 319.019 66.6264 319.002 66.4192C318.98 66.2046 319.174 66.0196 319.43 66.0011C319.726 65.9826 320.529 66.1972 321.046 66.471C321.642 66.7891 321.885 67.2442 321.977 67.4884C322.057 67.6919 321.92 67.9102 321.677 67.9767C321.655 67.9841 321.629 67.9878 321.607 67.9915L321.602 67.9952ZM319.483 66.778C319.483 66.778 319.496 66.778 319.501 66.778C319.496 66.778 319.492 66.778 319.483 66.778Z" fill="white" stroke="white" stroke-miterlimit="10"/>
<path d="M312.747 64.9949C312.678 65.0088 312.607 64.9949 312.545 64.9461C312.423 64.8554 312.221 64.7403 311.959 64.7299C311.726 64.7194 311.539 64.7996 311.422 64.8659C311.271 64.9495 311.095 64.8693 311.027 64.688C310.959 64.5032 311.024 64.287 311.172 64.2034C311.348 64.1057 311.63 63.9872 311.979 64.0011C312.371 64.0151 312.673 64.1859 312.857 64.3219C312.997 64.4265 313.042 64.6532 312.957 64.824C312.909 64.9182 312.832 64.9774 312.747 64.9949Z" fill="white" stroke="white" stroke-miterlimit="10"/>
<path d="M318.443 80.1848C318.337 80.2004 318.224 80.1653 318.146 80.0794C317.499 79.3455 316.917 78.5413 316.418 77.6941C316.328 77.538 316.379 77.335 316.535 77.2452C316.691 77.1515 316.89 77.2062 316.984 77.3623C317.46 78.1743 318.017 78.9434 318.638 79.6461C318.759 79.7827 318.743 79.9896 318.611 80.1106C318.564 80.1536 318.505 80.1809 318.443 80.1887V80.1848Z" fill="white" stroke="white" stroke-miterlimit="10"/>
<path d="M315.033 80.7236C313.811 80.911 312.66 80.5479 311.657 79.6461C311.521 79.5251 311.513 79.3182 311.634 79.1815C311.755 79.0488 311.962 79.0371 312.098 79.1581C313.245 80.1887 314.557 80.3917 315.992 79.7632C316.16 79.693 316.351 79.7632 316.425 79.9311C316.5 80.095 316.425 80.2902 316.258 80.3644C315.848 80.544 315.438 80.665 315.04 80.7275L315.033 80.7236Z" fill="white" stroke="white" stroke-miterlimit="10"/>
<path d="M308.53 67.9934C308.483 68.0022 308.435 68.0022 308.387 67.9934C308.134 67.9539 307.967 67.7385 308.005 67.5056C308.01 67.4749 308.564 64.3505 309.094 62.3247C309.151 62.0962 309.404 61.9556 309.647 62.0127C309.895 62.0655 310.048 62.2984 309.986 62.5225C309.466 64.5175 308.917 67.6111 308.912 67.6419C308.879 67.8264 308.721 67.967 308.53 67.9934Z" fill="white" stroke="white" stroke-miterlimit="10"/>
<path d="M319.617 74.9955C319.456 75.0203 319.29 74.9416 319.213 74.7841C319.112 74.5894 319.189 74.349 319.379 74.2454C319.819 74.0092 320.085 73.2426 320.19 72.6044C320.352 71.6099 319.645 71.2908 317.893 70.922C316.23 70.5697 315.976 71.0587 315.846 71.6347C315.701 72.277 315.778 72.9276 316.044 73.2923C316.105 73.3793 316.185 73.4581 316.278 73.5368L317.631 73.8932C317.841 73.9471 317.966 74.1667 317.909 74.378C317.857 74.5935 317.643 74.722 317.437 74.664L316.012 74.2869C315.963 74.2744 315.919 74.2537 315.883 74.2247C315.701 74.088 315.544 73.9346 315.422 73.7689C314.942 73.11 314.934 72.1403 315.091 71.4524C315.463 69.8072 316.872 69.886 318.055 70.1388C319.415 70.4247 321.276 70.8225 320.966 72.737C320.881 73.255 320.594 74.5024 319.746 74.9582C319.706 74.9789 319.666 74.9913 319.625 74.9996L319.617 74.9955Z" fill="white" stroke="white" stroke-miterlimit="10"/>
<path d="M311.668 72.9963C311.495 73.0164 311.317 72.9528 311.234 72.8255C311.126 72.668 311.208 72.4737 311.412 72.3899C311.838 72.219 311.998 71.8237 312.133 71.1971C312.319 70.3428 311.864 70.1149 310.088 69.7196C309.624 69.6157 308.942 69.6124 308.474 69.8436C308.161 69.9943 307.974 70.2255 307.905 70.5505C307.775 71.1569 307.848 71.6394 308.109 71.9074C308.174 71.9745 308.256 72.0381 308.352 72.0984L309.962 72.3397C310.188 72.3732 310.336 72.544 310.292 72.7183C310.249 72.8925 310.027 73.0064 309.802 72.9729L308.096 72.7149C308.035 72.7049 307.983 72.6881 307.931 72.6613C307.736 72.5507 307.566 72.4268 307.436 72.2927C306.92 71.7634 306.954 70.9928 307.076 70.4399C307.184 69.9374 307.51 69.542 308.022 69.2907C308.76 68.9322 309.689 68.9557 310.314 69.093C311.777 69.418 313.287 69.7531 312.953 71.2977C312.819 71.9309 312.601 72.6311 311.794 72.9561C311.751 72.9729 311.707 72.9829 311.664 72.9896L311.668 72.9963Z" fill="white" stroke="white" stroke-miterlimit="10"/>
<path d="M320.432 72.9962C320.323 73.0103 320.211 72.9856 320.125 72.915C319.97 72.788 319.958 72.5727 320.094 72.4351C320.47 72.0505 323.818 71.447 326.56 71.0059C326.762 70.9706 326.956 71.0976 326.995 71.2812C327.029 71.4647 326.894 71.6411 326.692 71.6764C324.008 72.1069 321.021 72.6821 320.633 72.908C320.575 72.9574 320.505 72.9891 320.432 72.9997V72.9962Z" fill="white" stroke="white" stroke-miterlimit="10"/>
<path d="M318.98 70.1092C318.902 70.6589 318.626 71.0527 318.359 70.9942C318.093 70.9319 317.943 70.4406 318.02 69.8908C318.098 69.3411 318.374 68.9473 318.641 69.0058C318.907 69.0681 319.057 69.5594 318.98 70.1092Z" fill="white" stroke="white" stroke-miterlimit="10"/>
<path d="M311.959 69.1092C311.803 69.6589 311.251 70.0527 310.719 69.9942C310.187 69.9319 309.885 69.4406 310.041 68.8908C310.197 68.3411 310.749 67.9473 311.281 68.0058C311.813 68.0642 312.115 68.5594 311.959 69.1092Z" fill="white" stroke="white" stroke-miterlimit="10"/>
<path d="M334.988 14.3919C335.02 15.2905 334.23 15.7204 333.563 16.3052C332.818 16.9636 332.068 17.6181 331.318 18.2765C329.514 19.8567 327.711 21.433 325.903 23.0093C324.794 23.9737 323.433 25.1549 322.056 26.3439V44.361C321.693 44.849 321.46 44.9148 321.266 44.9148C321.073 44.9148 320.812 44.8296 320.469 44.6476C318.468 43.5864 316.262 43.2184 314.565 43.0132C313.287 42.8621 311.929 42.7847 310.532 42.7847C309.135 42.7847 307.592 42.8621 305.938 43.0248C302.686 43.3424 299.715 43.9001 296.861 44.7366C296.262 44.9109 295.646 45 295.026 45C294.407 45 293.795 44.9109 293.195 44.7366C290.196 43.873 286.999 43.2881 283.688 42.9977C282.129 42.8621 280.74 42.7963 279.438 42.7963C278.463 42.7963 277.512 42.835 276.612 42.9125C274.347 43.1022 271.711 43.4741 269.347 44.7754C269.165 44.8761 268.988 44.9264 268.818 44.9264C268.332 44.9264 268.005 44.5081 268.005 43.8885C268.005 34.6243 268.005 10.5383 268.005 10.5383C268.005 10.3331 268.005 10.1278 268.009 9.92254C268.009 9.45391 268.017 8.96979 268.001 8.48954C267.985 8.04415 268.163 7.75368 268.585 7.51743C270.132 6.6615 271.884 6.06894 273.948 5.70101C276.569 5.23625 279.177 5 281.711 5C285.444 5 289.134 5.51123 292.682 6.5182C293.57 6.76995 294.446 7.1495 295.295 7.51356C295.646 7.6646 295.993 7.81565 296.348 7.95895C296.822 8.15259 297.027 8.4818 297.027 9.05887C297.019 16.0263 297.019 22.9938 297.019 29.9651V38.3269C297.019 38.9504 296.696 39.3339 296.175 39.3339C295.662 39.3339 295.33 38.9272 295.33 38.3075V35.3369C295.33 27.0604 295.33 18.505 295.342 10.0891C295.342 9.51975 295.141 9.20604 294.616 8.98141C292.56 8.09063 290.239 7.49032 287.311 7.09527C285.559 6.85515 283.712 6.73509 281.825 6.73509C281.099 6.73509 280.349 6.75445 279.6 6.78931C277.062 6.90937 273.739 7.20372 270.55 8.44307C269.931 8.68319 269.686 9.03563 269.69 9.69016C269.706 18.5321 269.706 27.5213 269.706 36.2122V42.2231C269.706 42.3122 269.749 42.3935 269.82 42.4477C269.872 42.4864 269.935 42.5058 269.998 42.5058C270.022 42.5058 270.049 42.5058 270.073 42.4981C270.373 42.4206 270.665 42.3393 270.957 42.2618C271.592 42.0875 272.192 41.9249 272.808 41.7816C274.497 41.3865 276.356 41.1813 278.66 41.1464C278.948 41.1425 279.24 41.1387 279.529 41.1387C284.327 41.1387 289.115 41.8048 293.76 43.1177C294.119 43.2184 294.521 43.2688 294.951 43.2688C295.456 43.2688 295.985 43.1991 296.483 43.0635C300.023 42.1108 303.409 41.526 306.834 41.2703C308.31 41.1619 309.53 41.1115 310.662 41.1115C311.945 41.1115 313.109 41.1774 314.218 41.3129C315.437 41.464 316.665 41.739 317.853 42.0062C318.366 42.1224 318.879 42.2386 319.396 42.3431C319.498 42.3625 319.605 42.4051 319.731 42.4477C319.806 42.4748 319.881 42.5019 319.964 42.529C319.996 42.5368 320.027 42.5445 320.059 42.5445C320.118 42.5445 320.173 42.529 320.224 42.4942C320.299 42.4438 320.347 42.3625 320.351 42.2734L320.363 42.0682C320.37 41.9249 320.378 41.7971 320.378 41.6692V34.8528C320.378 32.5019 320.378 30.1472 320.378 27.7963C317.643 30.1472 315.264 32.1882 315.264 32.1882L308.448 33.629C308.385 33.6406 308.318 33.6367 308.259 33.6212C308.18 33.598 308.109 33.5554 308.054 33.4895C307.959 33.3734 307.935 33.2184 307.99 33.0829L310.635 26.8087C311.084 26.4175 311.534 26.0263 311.984 25.6352C314.348 23.5825 316.712 21.5298 319.076 19.4733C319.51 19.0937 319.948 18.718 320.382 18.3385C320.382 15.4183 320.382 12.4981 320.39 9.57785C320.39 9.01239 320.173 8.69094 319.632 8.47018C317.868 7.74206 315.915 7.26956 313.484 6.97909C312.04 6.8048 310.627 6.7196 309.293 6.7196C308.16 6.7196 307.043 6.78156 305.97 6.9055C304.671 7.05655 303.373 7.32378 302.114 7.58327C301.601 7.68784 301.088 7.79241 300.571 7.89311C300.417 7.92022 300.275 7.97057 300.137 8.01704C300.038 8.0519 299.944 8.08288 299.845 8.10999C299.766 8.12936 299.687 8.1371 299.612 8.1371C299.225 8.1371 298.898 7.91247 298.779 7.56003C298.704 7.34702 298.72 7.11077 298.823 6.91325C298.921 6.72734 299.087 6.58404 299.292 6.5182C300.255 6.20837 301.131 5.96437 301.976 5.77459C304.229 5.26723 306.641 5.00775 309.147 5.00775C310.287 5.00775 311.483 5.06197 312.691 5.16654C316.207 5.4725 318.792 6.13091 321.073 7.30054C321.333 7.4361 321.562 7.65298 321.803 7.88149C321.89 7.96669 321.977 8.04802 322.067 8.12548V16.8668C323.729 15.4222 325.39 13.9775 327.052 12.5368C327.881 11.8164 328.769 11.1348 329.554 10.3679C330.256 9.67854 330.892 9.67467 331.776 10.1472C332.518 10.5461 333.185 11.1232 333.737 11.7467C334.349 12.4284 334.795 13.2223 334.968 14.117C334.988 14.2099 334.996 14.299 335 14.3803L334.988 14.3919ZM332.754 14.8916C332.17 14.4888 331.705 14.0046 331.318 13.5709C330.923 13.1294 330.493 12.6065 330.162 11.9791C326.448 15.1782 315.185 24.9458 312.537 27.2424L315.126 30.2324C317.553 28.1449 321.239 24.9264 324.814 21.8048C327.9 19.1131 330.836 16.5492 332.758 14.8916H332.754ZM313.563 30.9256L311.594 28.6483L310.567 30.9256L311.084 31.5066C311.112 31.4988 313.559 30.9256 313.559 30.9256H313.563Z" fill="white"/>
</g>
<path d="M15.7529 86.8515C14.8483 87.1155 14.1859 86.7524 13.7659 85.7622C13.2813 84.706 12.7643 83.7488 12.2151 82.8907C11.6658 81.9995 11.8274 81.4219 12.6997 81.1578C15.1229 80.4977 17.3522 79.4415 19.3877 77.9892C21.4232 76.5369 22.9902 74.6225 24.0887 72.246C24.3472 71.6849 24.3472 71.2393 24.0887 70.9092C23.8302 70.5791 23.4264 70.4141 22.8771 70.4141H22.5379C22.0532 70.4141 21.6655 70.2656 21.3747 69.9685C21.0839 69.6714 20.9386 69.2754 20.9386 68.7803V44.1242C20.9386 43.6291 21.0839 43.233 21.3747 42.936C21.6655 42.6389 22.0532 42.4904 22.5379 42.4904H42.9896C43.4742 42.4904 43.8619 42.6389 44.1527 42.936C44.4435 43.233 44.5889 43.6291 44.5889 44.1242V68.7803C44.5889 69.2754 44.4435 69.6714 44.1527 69.9685C43.8619 70.2656 43.4742 70.4141 42.9896 70.4141H41.051C40.5664 70.4141 40.1787 70.5626 39.8879 70.8597C39.5971 71.1568 39.4517 71.5528 39.4517 72.0479V78.3357C39.4517 78.5338 39.484 78.6988 39.5486 78.8308C39.6456 79.0619 39.9848 79.1774 40.5664 79.1774H40.9541C41.5033 79.1774 41.891 79.0289 42.1172 78.7318C42.3434 78.4017 42.5049 78.0552 42.6018 77.6921C42.6988 77.296 42.7634 76.9494 42.7957 76.6524C42.828 76.3553 42.8765 76.0087 42.9411 75.6127C43.0057 74.9525 43.345 74.738 43.9588 74.969C45.122 75.5632 46.1074 75.9427 46.9151 76.1078C47.7228 76.2398 48.2075 76.3388 48.369 76.4048C49.1121 76.5039 49.4352 76.9329 49.3383 77.6921C48.886 80.5967 48.3529 82.4946 47.739 83.3858C47.1574 84.2769 46.4628 84.9206 45.6551 85.3167C44.8473 85.7457 43.7811 85.9603 42.4565 85.9603H37.8524C36.1723 85.9603 35.0092 85.7953 34.363 85.4652C33.7491 85.1681 33.2968 84.772 33.006 84.2769C32.7152 83.8148 32.5699 83.1547 32.5699 82.2965V71.0082C32.5699 70.6121 32.3598 70.4141 31.9398 70.4141C31.5521 70.4141 31.3098 70.6121 31.2129 71.0082C30.1144 75.2331 28.2566 78.5998 25.6395 81.1083C23.0548 83.6168 19.7593 85.5312 15.7529 86.8515ZM3.15236 78.6823L2.08616 74.969C1.95692 74.573 1.97308 74.2429 2.13462 73.9788C2.32848 73.7148 2.5708 73.5497 2.86158 73.4837C3.18467 73.4177 3.44314 73.3847 3.637 73.3847C3.86316 73.3517 4.10548 73.3022 4.36395 73.2362L6.44789 72.7906C6.8356 72.7246 7.14254 72.543 7.36871 72.246C7.59487 71.9489 7.70795 71.6023 7.70795 71.2063V65.1165C7.70795 64.6214 7.56256 64.2253 7.27178 63.9283C6.981 63.6312 6.59329 63.4827 6.10865 63.4827H4.75166C4.26703 63.4827 3.87932 63.3342 3.58853 63.0371C3.29775 62.74 3.15236 62.3439 3.15236 61.8488V59.0763C3.15236 58.5812 3.29775 58.1851 3.58853 57.888C3.87932 57.591 4.26703 57.4424 4.75166 57.4424H6.10865C6.59329 57.4424 6.981 57.2939 7.27178 56.9969C7.56256 56.6998 7.70795 56.3037 7.70795 55.8086V51.5507C7.70795 51.0556 7.56256 50.6596 7.27178 50.3625C6.981 50.0654 6.59329 49.9169 6.10865 49.9169H4.50934C4.02471 49.9169 3.637 49.7684 3.34621 49.4713C3.05543 49.1743 2.91004 48.7782 2.91004 48.2831V45.5105C2.91004 45.0154 3.05543 44.6193 3.34621 44.3223C3.637 44.0252 4.02471 43.8767 4.50934 43.8767H17.8853C18.37 43.8767 18.7577 44.0252 19.0485 44.3223C19.3392 44.6193 19.4846 45.0154 19.4846 45.5105V48.2831C19.4846 48.7782 19.3392 49.1743 19.0485 49.4713C18.7577 49.7684 18.37 49.9169 17.8853 49.9169H16.2376C15.7529 49.9169 15.3652 50.0654 15.0744 50.3625C14.7837 50.6596 14.6383 51.0556 14.6383 51.5507V55.8086C14.6383 56.3037 14.7837 56.6998 15.0744 56.9969C15.3652 57.2939 15.7529 57.4424 16.2376 57.4424H17.1584C17.643 57.4424 18.0307 57.591 18.3215 57.888C18.6123 58.1851 18.7577 58.5812 18.7577 59.0763V61.8488C18.7577 62.3439 18.6123 62.74 18.3215 63.0371C18.0307 63.3342 17.643 63.4827 17.1584 63.4827H16.2376C15.7529 63.4827 15.3652 63.6312 15.0744 63.9283C14.7837 64.2253 14.6383 64.6214 14.6383 65.1165V68.6317C14.6383 69.2919 14.816 69.754 15.1714 70.018C15.5591 70.2821 15.9629 70.3646 16.383 70.2656C16.803 70.1335 17.1261 70.0345 17.3522 69.9685C17.5784 69.8695 17.9015 69.754 18.3215 69.6219C18.7738 69.4899 19.1939 69.5724 19.5816 69.8695C19.9693 70.1335 20.1631 70.6121 20.1631 71.3053V73.7808C20.1631 74.5069 19.8239 75.002 19.1454 75.2661C18.1438 75.6952 16.0114 76.4543 12.7482 77.5436C9.48496 78.5998 6.88407 79.3424 4.94552 79.7715C4.5255 79.9035 4.15394 79.8705 3.83085 79.6725C3.50776 79.4415 3.2816 79.1114 3.15236 78.6823ZM29.2259 50.412H36.3016C37.0124 50.412 37.3678 50.0489 37.3678 49.3228C37.3678 48.5636 37.0124 48.184 36.3016 48.184H29.2259C28.4827 48.184 28.1112 48.5636 28.1112 49.3228C28.1112 50.0489 28.4827 50.412 29.2259 50.412ZM29.2259 57.5415H36.3016C37.0124 57.5415 37.3678 57.1784 37.3678 56.4522C37.3678 55.6931 37.0124 55.3135 36.3016 55.3135H29.2259C28.4827 55.3135 28.1112 55.6931 28.1112 56.4522C28.1112 57.1784 28.4827 57.5415 29.2259 57.5415ZM29.1774 64.6214H36.3016C37.0124 64.6214 37.3678 64.2583 37.3678 63.5322C37.3678 62.806 37.0124 62.443 36.3016 62.443H29.1774C28.4666 62.443 28.1112 62.806 28.1112 63.5322C28.1112 64.2583 28.4666 64.6214 29.1774 64.6214Z" fill="white"/>
<path d="M80.0158 86.3069C78.2388 86.3069 76.9949 86.1253 76.2841 85.7622C74.9918 85.0691 74.3456 83.8974 74.3456 82.247V68.4337C74.3456 67.8066 74.184 67.3775 73.861 67.1464C73.5056 66.9154 73.0048 66.9154 72.3586 67.1464C71.1631 67.5755 70.3877 67.3115 70.0323 66.3543L68.7723 63.1361C68.6107 62.674 68.6107 62.2449 68.7723 61.8488C68.9338 61.4528 69.2407 61.1722 69.6931 61.0072L73.3279 59.6704C74.0063 59.3733 74.3456 58.8617 74.3456 58.1356V46.7483C74.3456 46.2532 74.491 45.8571 74.7818 45.56C75.0725 45.263 75.4603 45.1144 75.9449 45.1144H79.6281C80.1128 45.1144 80.5005 45.263 80.7913 45.56C81.0821 45.8571 81.2274 46.2532 81.2274 46.7483V55.5115C81.2274 55.8746 81.3244 56.1387 81.5182 56.3037C81.7121 56.4357 81.9867 56.4192 82.3421 56.2542H82.3906C83.0691 55.9901 83.4083 55.4785 83.4083 54.7194V43.1835C83.4083 42.6884 83.5537 42.2923 83.8445 41.9953C84.1353 41.6982 84.523 41.5497 85.0076 41.5497H88.4001C88.8847 41.5497 89.2724 41.6982 89.5632 41.9953C89.854 42.2923 89.9994 42.6884 89.9994 43.1835V51.0556C89.9994 51.7488 90.1932 52.2439 90.5809 52.5409C90.9686 52.805 91.4856 52.8215 92.1318 52.5905L95.815 51.1547C96.235 51.0226 96.6228 51.0391 96.9782 51.2042L98.1898 51.6993C98.8682 51.9633 99.2075 52.4584 99.2075 53.1846V69.3249C99.2075 71.8334 97.9959 73.4837 95.5727 74.2759C94.8619 74.5069 94.1834 74.705 93.5372 74.87C92.3741 75.1341 91.6471 74.6885 91.3564 73.5332C91.2917 73.2692 91.2271 72.9886 91.1625 72.6916C91.0979 72.3945 91.0171 72.1305 90.9202 71.8994C90.8556 71.6354 90.7748 71.4043 90.6779 71.2063C90.6132 70.9752 90.5325 70.7112 90.4355 70.4141C90.3386 70.117 90.2417 69.985 90.1448 70.018C90.0478 70.018 89.9994 70.2326 89.9994 70.6617V75.5632C89.9994 76.0583 89.854 76.4543 89.5632 76.7514C89.2724 77.0485 88.8847 77.197 88.4001 77.197H85.0076C84.523 77.197 84.1353 77.0485 83.8445 76.7514C83.5537 76.4543 83.4083 76.0583 83.4083 75.5632V64.1263C83.4083 63.7632 83.3114 63.5157 83.1175 63.3837C82.8914 63.1856 82.6006 63.1856 82.2452 63.3837C81.5667 63.6477 81.2274 64.1593 81.2274 64.9185V78.6823C81.2274 79.1444 81.3405 79.4415 81.5667 79.5735C81.7605 79.7715 82.1967 79.8705 82.8752 79.8705H91.5018C92.6326 79.8705 93.3918 79.491 93.7795 78.7318C94.0057 78.3027 94.2319 77.3455 94.458 75.8602C94.5227 75.2001 94.8781 74.9855 95.5242 75.2166C96.2674 75.5797 97.4143 75.9922 98.9652 76.4543L100.08 76.7514C100.435 76.8504 100.694 77.0485 100.855 77.3455C101.049 77.6096 101.065 78.1707 100.904 79.0289C100.774 79.854 100.564 80.7782 100.274 81.8014C100.015 82.7916 99.6437 83.6168 99.159 84.2769C98.1574 85.6302 96.3481 86.3069 93.7311 86.3069H80.0158ZM56.3655 80.6627L55.3963 76.4048C55.2993 76.0087 55.3317 75.6787 55.4932 75.4146C55.6871 75.1176 55.9294 74.936 56.2201 74.87C56.5109 74.804 56.7533 74.7545 56.9471 74.7215C57.1733 74.6885 57.3994 74.639 57.6256 74.573L59.1764 74.1769C59.9842 73.9458 60.388 73.4342 60.388 72.6421V61.6013C60.388 61.1062 60.2426 60.7101 59.9519 60.4131C59.6611 60.116 59.2734 59.9675 58.7887 59.9675H57.1894C56.7048 59.9675 56.3171 59.8189 56.0263 59.5219C55.7355 59.2248 55.5901 58.8287 55.5901 58.3336V55.2145C55.5901 54.7194 55.7355 54.3233 56.0263 54.0262C56.3171 53.7292 56.7048 53.5807 57.1894 53.5807H58.7887C59.2734 53.5807 59.6611 53.4321 59.9519 53.1351C60.2426 52.838 60.388 52.4419 60.388 51.9468V44.2232C60.388 43.7281 60.5334 43.3321 60.8242 43.035C61.115 42.7379 61.5027 42.5894 61.9873 42.5894H65.6706C66.1552 42.5894 66.5429 42.7379 66.8337 43.035C67.1245 43.3321 67.2699 43.7281 67.2699 44.2232V51.9468C67.2699 52.4419 67.4153 52.838 67.7061 53.1351C67.9968 53.4321 68.3845 53.5807 68.8692 53.5807H70.3716C70.8562 53.5807 71.2439 53.7292 71.5347 54.0262C71.8255 54.3233 71.9709 54.7194 71.9709 55.2145V58.3336C71.9709 58.8287 71.8255 59.2248 71.5347 59.5219C71.2439 59.8189 70.8562 59.9675 70.3716 59.9675H68.8692C68.3845 59.9675 67.9968 60.116 67.7061 60.4131C67.4153 60.7101 67.2699 61.1062 67.2699 61.6013V70.1666C67.2699 70.5956 67.383 70.9092 67.6091 71.1072C67.8676 71.2723 68.2068 71.2723 68.6269 71.1072L69.9354 70.6121L71.0501 70.117C71.7932 69.853 72.1647 70.117 72.1647 70.9092V75.2661C72.1647 75.8932 71.8901 76.3553 71.3408 76.6524C67.7868 78.3027 63.4574 80.0356 58.3526 81.8509C57.8679 82.016 57.4479 81.983 57.0925 81.7519C56.7371 81.5209 56.4948 81.1578 56.3655 80.6627ZM90.6294 68.5327H91.211C91.7279 68.5327 92.0995 68.4337 92.3256 68.2357C92.5518 68.1036 92.6649 67.7736 92.6649 67.2455V60.8586C92.6649 60.4296 92.5356 60.1325 92.2772 59.9675C92.051 59.7694 91.7441 59.7529 91.3564 59.918C90.4517 60.182 89.9994 60.7266 89.9994 61.5518V67.8891C89.9994 68.3182 90.2094 68.5327 90.6294 68.5327Z" fill="white"/>
<path d="M112.826 86.7524C112.406 86.9175 112.002 86.901 111.614 86.7029C111.259 86.5379 110.952 86.1913 110.693 85.6632C110.435 85.1681 110.225 84.7885 110.063 84.5245C109.902 84.2934 109.756 84.0624 109.627 83.8314C109.498 83.6003 109.32 83.3362 109.094 83.0392C108.868 82.7421 108.803 82.4451 108.9 82.148C108.997 81.8179 109.272 81.5704 109.724 81.4054C111.857 80.7452 114.199 79.788 116.751 78.5338L118.932 77.4941C119.578 77.164 119.885 76.8999 119.853 76.7019C119.821 76.4708 119.433 76.3553 118.69 76.3553H110.645C110.16 76.3553 109.773 76.2068 109.482 75.9097C109.191 75.6127 109.046 75.2166 109.046 74.7215V73.0381C109.046 72.543 109.191 72.147 109.482 71.8499C109.773 71.5528 110.16 71.4043 110.645 71.4043H126.783C127.333 71.4043 127.607 71.1237 127.607 70.5626C127.607 69.9685 127.333 69.6714 126.783 69.6714H116.509C116.024 69.6714 115.637 69.5229 115.346 69.2259C115.055 68.9288 114.91 68.5327 114.91 68.0376V57.1949C114.91 56.4357 114.635 56.3367 114.086 56.8978L113.262 57.8385L112.438 58.6802C112.212 58.8782 111.953 58.9773 111.663 58.9773C111.404 58.9773 111.097 58.7957 110.742 58.4326C109.934 57.6075 109.078 56.8978 108.173 56.3037C107.301 55.6766 107.269 54.9999 108.076 54.2738C108.884 53.5146 109.692 52.6565 110.5 51.6993C111.34 50.7091 112.147 49.6859 112.923 48.6296C114.441 46.4182 115.734 44.2067 116.8 41.9953C117.22 41.0711 117.898 40.7905 118.835 41.1536L122.809 42.6389C123.359 42.87 123.504 43.233 123.246 43.7281L122.373 45.362C122.05 45.9561 122.212 46.2532 122.858 46.2532H127.074C127.72 46.2532 128.173 45.9726 128.431 45.4115C129.239 43.9592 129.74 42.8865 129.934 42.1933C130.289 41.4012 130.854 41.0381 131.63 41.1041L136.088 41.4012C136.444 41.4342 136.702 41.5662 136.864 41.7972C137.025 42.0283 137.042 42.2758 136.912 42.5399C136.815 42.8039 136.718 43.035 136.621 43.233C136.525 43.4311 136.444 43.6291 136.379 43.8272L135.749 45.0154C135.588 45.3785 135.571 45.6755 135.701 45.9066C135.83 46.1376 136.088 46.2532 136.476 46.2532H148.107C148.592 46.2532 148.98 46.4017 149.271 46.6987C149.561 46.9958 149.707 47.3919 149.707 47.887V49.5703C149.707 50.0654 149.561 50.4615 149.271 50.7586C148.98 51.0556 148.592 51.2042 148.107 51.2042H135.265C134.78 51.2042 134.538 51.4517 134.538 51.9468C134.538 52.4419 134.78 52.6895 135.265 52.6895H144.957C145.442 52.6895 145.83 52.838 146.12 53.1351C146.411 53.4321 146.557 53.8282 146.557 54.3233V55.5611C146.557 56.0562 146.411 56.4522 146.12 56.7493C145.83 57.0464 145.442 57.1949 144.957 57.1949H135.265C134.78 57.1949 134.538 57.4424 134.538 57.9375C134.538 58.4326 134.78 58.6802 135.265 58.6802H144.957C145.442 58.6802 145.83 58.8287 146.12 59.1258C146.411 59.4229 146.557 59.8189 146.557 60.314V61.5518C146.557 62.0469 146.411 62.443 146.12 62.74C145.83 63.0371 145.442 63.1856 144.957 63.1856H135.313C134.796 63.1856 134.538 63.4497 134.538 63.9778C134.538 64.4729 134.796 64.7204 135.313 64.7204H148.689C149.174 64.7204 149.561 64.869 149.852 65.166C150.143 65.4631 150.288 65.8592 150.288 66.3543V68.0376C150.288 68.5327 150.143 68.9288 149.852 69.2259C149.561 69.5229 149.174 69.6714 148.689 69.6714H135.41C134.828 69.6714 134.538 69.9685 134.538 70.5626C134.538 71.1237 134.828 71.4043 135.41 71.4043H151.306C151.791 71.4043 152.178 71.5528 152.469 71.8499C152.76 72.147 152.905 72.543 152.905 73.0381V74.7215C152.905 75.2166 152.76 75.6127 152.469 75.9097C152.178 76.2068 151.791 76.3553 151.306 76.3553H144.521C143.39 76.3553 142.793 76.5039 142.728 76.8009C142.663 77.098 143.229 77.5106 144.424 78.0387C147.332 79.3259 149.965 80.3326 152.324 81.0588C153.325 81.3558 153.519 81.983 152.905 82.9402C152.744 83.1382 152.582 83.3528 152.421 83.5838C152.291 83.8479 152.146 84.1119 151.984 84.376C151.629 85.0031 151.338 85.5147 151.112 85.9108C150.595 86.802 149.933 87.0825 149.125 86.7524C145.733 85.4322 142.114 83.5673 138.269 81.1578C137.849 80.8937 137.397 80.6132 136.912 80.3161C136.428 79.9861 136.008 79.821 135.652 79.821C134.909 79.821 134.538 80.4317 134.538 81.6529V85.3662C134.538 85.8613 134.392 86.2573 134.101 86.5544C133.811 86.8515 133.423 87 132.938 87H129.207C128.722 87 128.334 86.8515 128.043 86.5544C127.753 86.2573 127.607 85.8613 127.607 85.3662V81.5044C127.607 80.2831 127.236 79.6725 126.493 79.6725C126.105 79.6725 125.653 79.8375 125.136 80.1676C121.42 82.8411 117.317 85.0361 112.826 86.7524ZM122.276 52.6895H126.88C127.365 52.6895 127.607 52.4419 127.607 51.9468C127.607 51.4517 127.365 51.2042 126.88 51.2042H122.276C121.792 51.2042 121.549 51.4517 121.549 51.9468C121.549 52.4419 121.792 52.6895 122.276 52.6895ZM122.276 58.6802H126.88C127.365 58.6802 127.607 58.4326 127.607 57.9375C127.607 57.4424 127.365 57.1949 126.88 57.1949H122.276C121.792 57.1949 121.549 57.4424 121.549 57.9375C121.549 58.4326 121.792 58.6802 122.276 58.6802ZM122.325 64.7204H126.88C127.365 64.7204 127.607 64.4729 127.607 63.9778C127.607 63.4497 127.365 63.1856 126.88 63.1856H122.325C121.808 63.1856 121.549 63.4497 121.549 63.9778C121.549 64.4729 121.808 64.7204 122.325 64.7204Z" fill="white"/>
<path d="M160.853 63.8788C160.143 62.6905 159.367 61.6343 158.527 60.7101C158.172 60.314 158.026 59.9345 158.091 59.5714C158.156 59.2083 158.43 58.9112 158.915 58.6802C162.469 56.8978 165.958 54.5378 169.383 51.6002C173.034 48.4976 175.812 45.3125 177.719 42.0448C178.139 41.3847 178.672 41.1206 179.318 41.2526L184.213 41.9953C184.633 42.0613 184.988 42.2923 185.279 42.6884C187.379 45.692 190.222 48.5636 193.809 51.3032C197.266 53.9437 200.771 56.0232 204.325 57.5415C205.068 57.8715 205.198 58.3501 204.713 58.9773C204.519 59.3073 204.293 59.6374 204.035 59.9675L202.532 62.443C202.403 62.674 202.274 62.8886 202.144 63.0866C202.048 63.2516 201.902 63.5157 201.708 63.8788C201.514 64.2088 201.24 64.3739 200.884 64.3739C200.529 64.3739 200.077 64.2418 199.527 63.9778C199.01 63.6807 198.445 63.3507 197.831 62.9876C197.25 62.6245 196.7 62.2614 196.183 61.8984C195.15 61.2052 194.503 60.8586 194.245 60.8586C193.793 60.8586 193.566 61.2217 193.566 61.9479V62.1459C193.566 62.641 193.421 63.0371 193.13 63.3342C192.839 63.6312 192.452 63.7797 191.967 63.7797H170.643C170.158 63.7797 169.771 63.6312 169.48 63.3342C169.189 63.0371 169.044 62.608 169.044 62.0469C169.044 61.4858 168.85 61.2052 168.462 61.2052C168.301 61.2052 167.961 61.4033 167.444 61.7993C165.958 62.8556 164.763 63.6147 163.858 64.0768C162.986 64.5389 162.437 64.7699 162.21 64.7699C161.661 64.7699 161.209 64.4729 160.853 63.8788ZM176.459 57.2444H186.636C187.605 57.2444 188.155 57.0629 188.284 56.6998C188.413 56.3037 188.09 55.7426 187.315 55.0164C185.764 53.5642 184.245 51.9468 182.759 50.1645C182.339 49.6363 181.87 49.3723 181.354 49.3723C180.869 49.3723 180.449 49.6198 180.093 50.1149C179.189 51.3032 178.316 52.3264 177.476 53.1846L175.635 55.066C174.924 55.7261 174.633 56.2542 174.762 56.6503C174.924 57.0464 175.489 57.2444 176.459 57.2444ZM166.475 85.0196V68.6317C166.475 68.1366 166.621 67.7406 166.911 67.4435C167.202 67.1464 167.59 66.9979 168.074 66.9979H194.584C195.069 66.9979 195.456 67.1464 195.747 67.4435C196.038 67.7406 196.183 68.1366 196.183 68.6317V85.0196C196.183 85.5147 196.038 85.9108 195.747 86.2078C195.456 86.5049 195.069 86.6534 194.584 86.6534H168.074C167.59 86.6534 167.202 86.5049 166.911 86.2078C166.621 85.9108 166.475 85.5147 166.475 85.0196ZM175.489 80.2666H187.072C187.557 80.2666 187.945 80.1181 188.235 79.821C188.526 79.524 188.672 79.1279 188.672 78.6328V75.0681C188.672 74.573 188.526 74.1769 188.235 73.8798C187.945 73.5828 187.557 73.4342 187.072 73.4342H175.489C175.005 73.4342 174.617 73.5828 174.326 73.8798C174.035 74.1769 173.89 74.573 173.89 75.0681V78.6328C173.89 79.1279 174.035 79.524 174.326 79.821C174.617 80.1181 175.005 80.2666 175.489 80.2666Z" fill="white"/>
<path d="M0.381758 16.2121V12.4668C0.381758 12.2633 0.445384 12.1004 0.572637 11.9783C0.699889 11.8562 0.869559 11.7951 1.08165 11.7951H2.56626C2.80663 11.7951 2.96216 11.7341 3.03285 11.6119C3.11769 11.4898 3.11062 11.3337 3.01164 11.1438L2.65109 10.4924C2.5804 10.3974 2.51677 10.3092 2.46022 10.2278C2.40366 10.1328 2.33296 10.031 2.24813 9.92249C2.16329 9.80036 2.13502 9.67145 2.16329 9.53575C2.20571 9.38649 2.31882 9.27114 2.50263 9.18973L4.1145 8.51802C4.19933 8.47731 4.31952 8.45696 4.47505 8.45696C4.63058 8.45696 4.75783 8.51802 4.85681 8.64015C5.01234 8.83013 5.15373 9.02689 5.28098 9.23044L5.98087 10.3703C6.03743 10.4789 6.08691 10.5738 6.12933 10.6553C6.18589 10.7367 6.24245 10.8384 6.299 10.9606C6.35556 11.0691 6.35556 11.1845 6.299 11.3066C6.24245 11.4287 6.1364 11.5237 5.98087 11.5916C5.65567 11.7273 5.66981 11.7951 6.02329 11.7951H7.40186C7.6705 11.7951 7.85431 11.7273 7.95328 11.5916C8.05226 11.4423 8.05226 11.2795 7.95328 11.1031C7.55739 10.3432 7.28167 9.84786 7.12614 9.61717C6.81508 9.14223 6.91406 8.80299 7.42307 8.59944L9.01372 8.07022C9.12684 8.02951 9.24702 8.02273 9.37427 8.04987C9.51566 8.07701 9.66413 8.19235 9.81966 8.3959C10.0459 8.68086 10.2933 9.0676 10.562 9.55611C10.8447 10.0446 11.0073 10.3364 11.0498 10.4314C11.0922 10.5128 11.1417 10.6213 11.1982 10.757C11.2548 10.8792 11.2477 11.0149 11.177 11.1641C11.1063 11.2998 10.9437 11.4152 10.6892 11.5102C10.2226 11.7001 10.2368 11.7951 10.7316 11.7951H11.6436C11.9123 11.7951 12.0961 11.7137 12.195 11.5509C12.294 11.3745 12.3788 11.2184 12.4495 11.0827C12.5344 10.9334 12.6263 10.7774 12.7253 10.6145L13.4251 9.25079C13.5241 9.06081 13.616 8.87084 13.7009 8.68086C13.8705 8.32805 14.1462 8.19235 14.528 8.27377L16.2883 8.68086C16.5287 8.73514 16.6913 8.8437 16.7761 9.00653C16.861 9.16937 16.861 9.33221 16.7761 9.49504C16.6913 9.65788 16.6206 9.80036 16.564 9.92249C16.5075 10.0446 16.4439 10.1735 16.3732 10.3092C16.3025 10.4314 16.2318 10.5603 16.1611 10.696C16.0904 10.8181 16.0055 10.9674 15.9066 11.1438C15.8076 11.3202 15.7935 11.4762 15.8642 11.6119C15.949 11.7341 16.1257 11.7951 16.3944 11.7951H18.4092C18.6213 11.7951 18.791 11.8562 18.9182 11.9783C19.0455 12.1004 19.1091 12.2633 19.1091 12.4668V16.2121C19.1091 16.4156 19.0455 16.5784 18.9182 16.7006C18.791 16.8227 18.6213 16.8838 18.4092 16.8838H16.8185C16.6065 16.8838 16.4368 16.8227 16.3095 16.7006C16.1823 16.5784 16.1187 16.4156 16.1187 16.2121V14.8076C16.1187 14.604 16.055 14.4412 15.9278 14.3191C15.8005 14.197 15.6309 14.1359 15.4188 14.1359H4.00846C3.79637 14.1359 3.6267 14.197 3.49945 14.3191C3.37219 14.4412 3.30857 14.604 3.30857 14.8076V16.2121C3.30857 16.4156 3.24494 16.5784 3.11769 16.7006C2.99044 16.8227 2.82076 16.8838 2.60868 16.8838H1.08165C0.869559 16.8838 0.699889 16.8227 0.572637 16.7006C0.445384 16.5784 0.381758 16.4156 0.381758 16.2121ZM6.10812 26.5318C6.09398 26.464 6.07984 26.3894 6.06571 26.3079C6.06571 26.2265 6.05157 26.1451 6.02329 26.0637L5.78999 25.0052L5.66274 24.5778C5.56376 24.3064 5.66274 24.1707 5.95966 24.1707H7.5079C7.80482 24.1707 8.00984 24.13 8.12295 24.0486C8.25021 23.9536 8.31383 23.7772 8.31383 23.5194V22.7459C8.31383 22.5423 8.25021 22.3795 8.12295 22.2574C7.9957 22.1353 7.82603 22.0742 7.61395 22.0742H0.699889C0.487802 22.0742 0.318132 22.0131 0.190879 21.891C0.0636264 21.7689 0 21.606 0 21.4025V20.2219C0 20.0184 0.0636264 19.8555 0.190879 19.7334C0.318132 19.6113 0.487802 19.5502 0.699889 19.5502H7.80482C7.96035 19.5502 8.08054 19.5027 8.16537 19.4077C8.26435 19.3127 8.31383 19.1906 8.31383 19.0414C8.31383 18.8921 8.35625 18.7767 8.44109 18.6953C8.54006 18.6003 8.66731 18.5528 8.82284 18.5528H9.07735C9.24702 18.5528 9.39548 18.5053 9.52273 18.4104L10.0105 18.0236L10.3287 17.7387C10.5408 17.5623 10.5054 17.474 10.2226 17.474H4.8356C4.62351 17.474 4.45384 17.413 4.32659 17.2909C4.19933 17.1687 4.13571 17.0059 4.13571 16.8023V15.7236C4.13571 15.52 4.19933 15.3572 4.32659 15.235C4.45384 15.1129 4.62351 15.0519 4.8356 15.0519H14.2099C14.4644 15.0519 14.6623 15.1536 14.8037 15.3572L15.3127 16.151C15.4824 16.436 15.4541 16.687 15.2279 16.9041C15.0441 17.1077 14.8461 17.2909 14.634 17.4537C14.3088 17.7522 13.6584 18.2882 12.6828 19.0617C12.2728 19.3874 12.3364 19.5502 12.8737 19.5502H18.7273C18.9394 19.5502 19.1091 19.6113 19.2363 19.7334C19.3636 19.8555 19.4272 20.0184 19.4272 20.2219V21.4025C19.4272 21.606 19.3636 21.7689 19.2363 21.891C19.1091 22.0131 18.9394 22.0742 18.7273 22.0742H12.1314C11.9193 22.0742 11.7497 22.1353 11.6224 22.2574C11.4951 22.3795 11.4315 22.5423 11.4315 22.7459V24.6592C11.4315 25.9348 10.8235 26.6811 9.60757 26.8982C9.22581 26.9661 8.82284 27 8.39867 27H6.63834C6.32728 27 6.15054 26.8439 6.10812 26.5318Z" fill="white"/>
<path d="M36.5427 10.2482C36.6841 10.1125 36.8467 10.0446 37.0305 10.0446C37.2284 10.0446 37.4052 10.1193 37.5607 10.2685C37.6738 10.3771 37.7799 10.4721 37.8788 10.5535C38.3596 11.0013 38.6494 11.2795 38.7484 11.388C38.8474 11.483 38.9393 11.5712 39.0241 11.6526C39.1231 11.7341 39.1726 11.8494 39.1726 11.9987C39.1726 12.2022 39.0877 12.3786 38.9181 12.5279L38.5787 12.8332C38.4232 12.9825 38.2253 13.0571 37.9849 13.0571C37.7587 13.0571 37.5607 12.9689 37.391 12.7925C37.1083 12.4668 36.875 12.2226 36.6912 12.0597L36.2246 11.6526C36.0549 11.5034 35.9701 11.3202 35.9701 11.1031C35.9701 10.8859 36.062 10.6892 36.2458 10.5128L36.5427 10.2482ZM34.846 11.7951C35.0015 11.6594 35.1641 11.5916 35.3338 11.5916C35.5176 11.5916 35.659 11.6391 35.758 11.7341C35.8287 11.8019 35.8923 11.8562 35.9488 11.8969C36.0054 11.9376 36.069 11.9919 36.1397 12.0597C36.7477 12.6297 37.0729 12.9418 37.1153 12.996C37.1719 13.0503 37.2426 13.1249 37.3274 13.2199C37.4123 13.3014 37.4547 13.4167 37.4547 13.566C37.4547 13.7559 37.3769 13.9256 37.2214 14.0748L36.882 14.3801C36.7265 14.543 36.5286 14.6244 36.2882 14.6244C36.062 14.6244 35.8711 14.5362 35.7155 14.3598C35.4328 14.0477 35.2348 13.8441 35.1217 13.7492C35.0086 13.6542 34.9096 13.566 34.8248 13.4845C34.7541 13.4031 34.6551 13.3149 34.5279 13.2199C34.3582 13.0707 34.2734 12.8875 34.2734 12.6704C34.2734 12.4397 34.3723 12.2361 34.5703 12.0597L34.846 11.7951ZM26.108 19.6723C25.9524 19.7809 25.7828 19.8352 25.599 19.8352C25.401 19.8352 25.2172 19.7538 25.0475 19.5909L23.775 18.2475C23.5912 18.0711 23.4993 17.8879 23.4993 17.6979C23.4993 17.4266 23.6619 17.1959 23.9871 17.0059C24.7506 16.6395 25.5495 16.1985 26.3837 15.6828C27.8683 14.733 28.9005 13.9595 29.4802 13.3624C29.8054 13.0503 30.1094 12.8943 30.3922 12.8943C30.6749 12.8943 30.986 13.03 31.3253 13.3014C31.6647 13.5727 32.2444 14.0138 33.0645 14.6244C35.0864 16.1035 37.186 17.4537 39.3635 18.675C39.8583 18.9599 40.3603 19.2178 40.8693 19.4484C41.1096 19.557 41.2298 19.7063 41.2298 19.8962C41.2298 20.0319 41.1591 20.1744 41.0177 20.3237C40.4946 20.8936 40.0704 21.4771 39.7452 22.0742C39.618 22.332 39.4412 22.4609 39.215 22.4609C39.0312 22.4609 38.8969 22.427 38.812 22.3592C36.4225 20.9208 34.2097 19.4145 32.1737 17.8404C31.5798 17.3926 31.1557 17.0534 30.9012 16.8227C30.6608 16.592 30.4841 16.4427 30.3709 16.3749C30.3285 16.3885 30.272 16.4224 30.2013 16.4767C29.2115 17.4266 27.8471 18.4918 26.108 19.6723Z" fill="white"/>
<path d="M57.5818 25.2292C56.8324 25.4598 56.1113 25.5752 55.4185 25.5752C54.7398 25.5752 54.1106 25.5209 53.5309 25.4123C52.9512 25.3174 52.4139 25.1477 51.919 24.9035C50.7879 24.32 50.2223 23.4312 50.2223 22.237C50.2223 21.355 50.5546 20.6358 51.2192 20.0794C51.8413 19.5638 52.5977 19.306 53.4885 19.306C55.2417 19.306 56.4719 20.0591 57.1788 21.5653C57.2637 21.7689 57.3697 21.8706 57.4969 21.8706C57.6666 21.8706 57.8221 21.6603 57.9635 21.2396C58.0908 20.8733 58.1544 20.5205 58.1544 20.1812C58.1544 19.842 58.0767 19.5299 57.9211 19.2449C57.7656 18.9464 57.5676 18.6953 57.3273 18.4918C56.79 18.0711 56.1608 17.8608 55.4397 17.8608C54.7327 17.8608 54.0823 17.9286 53.4885 18.0643C52.8946 18.2 52.3503 18.485 51.8554 18.9192L50.3072 20.1405C50.1516 20.2762 49.9749 20.344 49.777 20.344C49.579 20.344 49.3952 20.2558 49.2255 20.0794L48.2075 19.0414C48.0237 18.8514 47.9318 18.6614 47.9318 18.4714C47.9318 18.2272 48.0803 18.0101 48.3772 17.8201C50.2294 16.7345 52.1523 15.0722 54.146 12.8332C54.2167 12.7518 54.2661 12.6771 54.2944 12.6093C54.2803 12.6093 54.252 12.6093 54.2096 12.6093C54.1955 12.6093 53.842 12.6704 53.1491 12.7925C52.3432 12.9418 51.5231 13.0503 50.6889 13.1182C50.6324 13.1182 50.59 13.1182 50.5617 13.1182C50.4062 13.1182 50.2648 13.0775 50.1375 12.996C49.9678 12.8739 49.8689 12.7111 49.8406 12.5075L49.5225 11.0623C49.5225 10.9945 49.5225 10.9334 49.5225 10.8792C49.5225 10.662 49.6002 10.4924 49.7558 10.3703C49.883 10.3024 50.0456 10.2685 50.2436 10.2685H50.5405C51.9968 10.2685 53.5663 10.1057 55.2488 9.78001C55.7861 9.68502 56.1608 9.61039 56.3729 9.55611C56.585 9.50183 56.7617 9.47469 56.9031 9.47469C57.0586 9.47469 57.2071 9.5154 57.3485 9.59682L58.7271 10.4721C58.9109 10.5806 59.031 10.7299 59.0876 10.9199C59.1159 10.9877 59.13 11.0488 59.13 11.1031C59.13 11.2388 59.0805 11.3677 58.9816 11.4898C58.2605 12.7111 57.1505 14.0545 55.6518 15.52L56.076 15.4997C57.6878 15.4997 58.9745 15.9067 59.936 16.7209C60.9823 17.5758 61.5054 18.7428 61.5054 20.2219C61.5054 21.891 60.8691 23.2208 59.5966 24.2114C59.0169 24.6457 58.3453 24.9849 57.5818 25.2292ZM53.5521 21.8503C53.4249 21.8503 53.333 21.8706 53.2764 21.9114C53.2198 21.9521 53.1916 22.0199 53.1916 22.1149C53.1916 22.2099 53.2269 22.2913 53.2976 22.3592C53.4956 22.5356 53.9197 22.6577 54.5701 22.7255C54.4712 22.4948 54.351 22.2913 54.2096 22.1149C54.0682 21.9385 53.849 21.8503 53.5521 21.8503Z" fill="white"/>
<path d="M68.2074 25.4327V19.306C68.2074 19.1024 68.271 18.9396 68.3982 18.8175C68.5255 18.6953 68.6952 18.6343 68.9073 18.6343H70.7524C70.9645 18.6343 71.1342 18.6953 71.2614 18.8175C71.3887 18.9396 71.4523 19.1024 71.4523 19.306V22.5016C71.4523 22.7052 71.5159 22.868 71.6432 22.9901C71.7704 23.1123 71.9401 23.1733 72.1522 23.1733H74.8245C75.0366 23.1733 75.2063 23.1123 75.3335 22.9901C75.4608 22.868 75.5244 22.7052 75.5244 22.5016V18.4104C75.5244 18.2068 75.4608 18.044 75.3335 17.9218C75.2063 17.7997 75.0366 17.7387 74.8245 17.7387H69.5859C69.3739 17.7387 69.2042 17.6776 69.0769 17.5555C68.9497 17.4333 68.886 17.2705 68.886 17.067V10.6349C68.886 10.4314 68.9497 10.2685 69.0769 10.1464C69.2042 10.0243 69.3739 9.9632 69.5859 9.9632H71.5371C71.7492 9.9632 71.9189 10.0243 72.0462 10.1464C72.1734 10.2685 72.237 10.4314 72.237 10.6349V14.197C72.237 14.4005 72.3007 14.5633 72.4279 14.6855C72.5552 14.8076 72.7248 14.8687 72.9369 14.8687H74.8245C75.0366 14.8687 75.2063 14.8076 75.3335 14.6855C75.4608 14.5633 75.5244 14.4005 75.5244 14.197V9.12866C75.5244 8.92512 75.588 8.76228 75.7153 8.64015C75.8425 8.51802 76.0122 8.45696 76.2243 8.45696H78.1119C78.3239 8.45696 78.4936 8.51802 78.6209 8.64015C78.7481 8.76228 78.8117 8.92512 78.8117 9.12866V14.197C78.8117 14.4005 78.8754 14.5633 79.0026 14.6855C79.1299 14.8076 79.2996 14.8687 79.5116 14.8687H81.3568C81.5689 14.8687 81.7386 14.8076 81.8658 14.6855C81.9931 14.5633 82.0567 14.4005 82.0567 14.197V10.6349C82.0567 10.4314 82.1203 10.2685 82.2476 10.1464C82.3748 10.0243 82.5445 9.9632 82.7566 9.9632H84.729C84.9411 9.9632 85.1108 10.0243 85.238 10.1464C85.3653 10.2685 85.4289 10.4314 85.4289 10.6349V17.067C85.4289 17.2705 85.3653 17.4333 85.238 17.5555C85.1108 17.6776 84.9411 17.7387 84.729 17.7387H79.5116C79.2996 17.7387 79.1299 17.7997 79.0026 17.9218C78.8754 18.044 78.8117 18.2068 78.8117 18.4104V22.5016C78.8117 22.7052 78.8754 22.868 79.0026 22.9901C79.1299 23.1123 79.2996 23.1733 79.5116 23.1733H82.2052C82.4172 23.1733 82.5869 23.1123 82.7142 22.9901C82.8414 22.868 82.905 22.7052 82.905 22.5016V19.306C82.905 19.1024 82.9687 18.9396 83.0959 18.8175C83.2232 18.6953 83.3928 18.6343 83.6049 18.6343H85.4501C85.6622 18.6343 85.8318 18.6953 85.9591 18.8175C86.0864 18.9396 86.15 19.1024 86.15 19.306V25.4327C86.15 25.6362 86.0864 25.7991 85.9591 25.9212C85.8318 26.0433 85.6622 26.1044 85.4501 26.1044H68.9073C68.6952 26.1044 68.5255 26.0433 68.3982 25.9212C68.271 25.7991 68.2074 25.6362 68.2074 25.4327Z" fill="white"/>
<path d="M90.7735 16.3749C90.519 15.9678 90.1655 15.5132 89.713 15.0111C89.3596 14.6312 89.4232 14.3394 89.9039 14.1359C92.3076 13.0775 94.4567 11.7137 96.3514 10.0446C96.9877 9.47469 97.532 8.89119 97.9845 8.29412C98.1824 8.06344 98.4086 7.96845 98.6631 8.00916L100.932 8.29412C101.116 8.32126 101.335 8.4841 101.59 8.78263C101.844 9.08117 102.226 9.44755 102.735 9.88178C103.258 10.316 103.803 10.7299 104.368 11.1234C105.613 11.9512 107.083 12.7382 108.78 13.4845C109.063 13.6202 109.359 13.7492 109.67 13.8713C109.996 13.9934 110.024 14.1834 109.755 14.4412L109.437 14.7669C109.409 14.7805 109.388 14.794 109.374 14.8076C109.374 14.8212 109.317 14.8958 109.204 15.0315C108.794 15.4929 108.469 15.9339 108.228 16.3545C108.03 16.6666 107.776 16.7481 107.465 16.5988C106.715 16.246 106.178 15.9746 105.853 15.7846C105.542 15.5946 105.33 15.4997 105.217 15.4997C104.976 15.4997 104.856 15.6761 104.856 16.0289V16.1714C104.856 16.3749 104.792 16.5377 104.665 16.6599C104.538 16.782 104.368 16.8431 104.156 16.8431H95.1213C94.9092 16.8431 94.7395 16.782 94.6123 16.6599C94.485 16.5377 94.4214 16.3749 94.4214 16.1714V15.9882C94.4214 15.6489 94.3012 15.4793 94.0608 15.4793C93.9619 15.4793 93.8346 15.52 93.6791 15.6014C92.3641 16.3613 91.5936 16.7413 91.3673 16.7413C91.1552 16.7413 90.9573 16.6192 90.7735 16.3749ZM97.2846 14.1562H101.972C102.339 14.1562 102.544 14.0952 102.587 13.9731C102.629 13.8374 102.509 13.6542 102.226 13.4235C101.618 12.9757 100.947 12.399 100.211 11.6933C100.042 11.5034 99.8579 11.4084 99.66 11.4084C99.462 11.4084 99.2358 11.5305 98.9813 11.7748C98.5995 12.1547 97.942 12.6907 97.0089 13.3828C96.6978 13.627 96.5635 13.817 96.6059 13.9527C96.6483 14.0884 96.8745 14.1562 97.2846 14.1562ZM106.807 26.3079C106.652 26.4572 106.539 26.5522 106.468 26.5929C106.411 26.6472 106.341 26.7083 106.256 26.7761C106.171 26.8575 106.072 26.8982 105.959 26.8982C105.846 26.8982 105.726 26.8032 105.598 26.6133C105.33 26.1655 105.019 25.738 104.665 25.3309C104.524 25.1274 104.319 25.0527 104.05 25.107L102.12 25.3716C101.682 25.4259 101.229 25.4802 100.763 25.5345C100.31 25.5887 99.8438 25.643 99.363 25.6973C98.8823 25.7652 98.4016 25.8194 97.9208 25.8601C97.4542 25.9144 96.9382 25.9687 96.3726 26.023C94.5769 26.2265 93.3115 26.3419 92.5762 26.369C92.1803 26.3961 91.947 26.2197 91.8763 25.8398L91.4946 23.9672C91.4663 23.8179 91.4946 23.6958 91.5794 23.6008C91.6643 23.5058 91.7703 23.4583 91.8976 23.4583C92.0248 23.4447 92.1308 23.4379 92.2157 23.4379C92.3147 23.4379 92.4207 23.4312 92.5338 23.4176L93.7427 23.3769C93.9972 23.3497 94.181 23.248 94.2941 23.0716C94.4073 22.8952 94.5133 22.712 94.6123 22.522C94.7112 22.332 94.8173 22.142 94.9304 21.9521L95.3122 21.1989C95.4253 20.9683 95.4323 20.7851 95.3334 20.6494C95.2485 20.5137 95.0718 20.4458 94.8031 20.4458H91.6643C91.4522 20.4458 91.2825 20.3848 91.1552 20.2626C91.028 20.1405 90.9644 19.9777 90.9644 19.7741V18.4307C90.9644 18.2272 91.028 18.0643 91.1552 17.9422C91.2825 17.8201 91.4522 17.759 91.6643 17.759H107.698C107.91 17.759 108.08 17.8201 108.207 17.9422C108.334 18.0643 108.398 18.2272 108.398 18.4307V19.7741C108.398 19.9777 108.334 20.1405 108.207 20.2626C108.08 20.3848 107.91 20.4458 107.698 20.4458H105.174C104.835 20.4458 104.644 20.5137 104.602 20.6494C104.559 20.7715 104.63 20.9208 104.814 21.0972C105.195 21.4364 105.499 21.7078 105.726 21.9114C106.418 22.6034 107.26 23.5194 108.25 24.6592C108.447 24.9035 108.398 25.1409 108.101 25.3716C108.03 25.4259 107.96 25.4734 107.889 25.5141C107.818 25.5684 107.719 25.643 107.592 25.738C107.239 25.9687 106.977 26.1587 106.807 26.3079ZM98.6844 23.0105L100.127 22.8884L101.696 22.7255C102.021 22.6984 102.064 22.5831 101.823 22.3795L101.463 22.0538L101.166 21.8299C100.968 21.6807 100.961 21.5246 101.145 21.3618L101.569 21.0157C101.781 20.8393 101.866 20.7036 101.823 20.6087C101.795 20.5001 101.639 20.4458 101.357 20.4458H99.766C99.4832 20.4458 99.2711 20.5747 99.1297 20.8326C98.8752 21.3753 98.5924 21.9046 98.2814 22.4202C98.1683 22.6238 98.1471 22.7798 98.2178 22.8884C98.2885 22.9969 98.444 23.0376 98.6844 23.0105Z" fill="white"/>
<path d="M119.045 23.5194C118.918 23.5194 118.783 23.5126 118.642 23.499C117.709 23.404 116.903 22.6373 116.224 21.1989C114.923 18.4443 114.223 15.6353 114.124 12.7721V12.7518C114.124 12.5347 114.202 12.3515 114.358 12.2022C114.513 12.0529 114.704 11.9783 114.93 11.9783L116.542 11.9987C116.797 11.9987 116.995 12.0801 117.136 12.2429C117.292 12.3922 117.369 12.6432 117.369 12.996C117.369 13.3488 117.405 13.8238 117.475 14.4209C117.56 15.0179 117.673 15.6286 117.815 16.2528C118.126 17.6505 118.522 18.736 119.002 19.5095C119.2 19.7131 119.349 19.8284 119.448 19.8555C119.617 19.8555 119.787 19.8013 119.957 19.6927C120.126 19.5841 120.303 19.4552 120.487 19.306C120.925 18.926 121.229 18.6207 121.399 18.39C121.512 18.2543 121.646 18.1865 121.802 18.1865C121.957 18.1865 122.078 18.2814 122.162 18.4714C122.247 18.6478 122.325 18.7971 122.396 18.9192L122.756 19.4484C122.884 19.652 123.004 19.8148 123.117 19.937C123.301 20.1134 123.393 20.2966 123.393 20.4865C123.393 20.6222 123.343 20.7579 123.244 20.8936C122.905 21.3279 122.53 21.7282 122.12 22.0945C121.71 22.4609 121.194 22.8002 120.572 23.1123C120.063 23.3837 119.554 23.5194 119.045 23.5194ZM125.683 12.2836C125.825 12.2022 125.987 12.1615 126.171 12.1615C126.355 12.1615 126.524 12.2361 126.68 12.3854C127.797 13.5388 128.822 14.9976 129.755 16.7616C129.84 16.9245 129.918 17.0737 129.988 17.2094C130.059 17.3451 130.123 17.4808 130.179 17.6165C130.236 17.7387 130.264 17.854 130.264 17.9626C130.264 18.0575 130.229 18.1525 130.158 18.2475C130.059 18.4375 129.875 18.5664 129.607 18.6343C129.239 18.7292 128.921 18.8446 128.652 18.9803C128.398 19.1024 128.214 19.1838 128.101 19.2245C127.988 19.2653 127.896 19.2856 127.825 19.2856C127.514 19.2856 127.288 19.116 127.147 18.7767C126.468 17.1891 125.535 15.6693 124.347 14.2173C124.177 14.0138 124.092 13.817 124.092 13.627C124.092 13.3963 124.22 13.1928 124.474 13.0164L125.683 12.2836Z" fill="white"/>
<path d="M144.813 15.9678L142.947 15.9882C142.693 15.9882 142.488 15.9407 142.332 15.8457C142.12 15.7236 142.007 15.5268 141.993 15.2554C141.936 14.2648 141.908 13.7559 141.908 13.7288C141.908 13.4845 141.986 13.2946 142.141 13.1589C142.297 13.0232 142.473 12.9553 142.671 12.9553C142.714 12.9553 142.82 12.9621 142.989 12.9757C143.173 12.9893 143.449 12.996 143.817 12.996H145.535C145.662 12.9825 145.761 12.9418 145.831 12.8739C145.902 12.8061 145.937 12.7246 145.937 12.6297C145.937 12.6161 145.937 12.5957 145.937 12.5686V11.7137L145.916 10.8792V10.8588C145.916 10.6281 145.994 10.4449 146.15 10.3092C146.305 10.16 146.503 10.0853 146.743 10.0853H148.228C148.483 10.0853 148.68 10.1532 148.822 10.2889C148.963 10.4246 149.034 10.601 149.034 10.8181L149.013 11.5712V12.365C149.013 12.5143 149.048 12.6229 149.119 12.6907C149.189 12.745 149.281 12.7721 149.395 12.7721C149.479 12.7721 149.67 12.7518 149.967 12.7111C150.278 12.6704 150.554 12.6364 150.794 12.6093C151.049 12.5686 151.24 12.5415 151.367 12.5279C151.494 12.5007 151.593 12.4872 151.664 12.4872C151.805 12.4872 151.932 12.5211 152.046 12.5889C152.229 12.7111 152.321 12.9078 152.321 13.1792V14.7262C152.321 14.9026 152.258 15.0654 152.13 15.2147C152.017 15.364 151.805 15.4589 151.494 15.4997C150.717 15.6082 150.045 15.6828 149.479 15.7236C149.352 15.7371 149.253 15.7778 149.182 15.8457C149.126 15.9135 149.098 16.0221 149.098 16.1714C149.098 16.1849 149.098 16.2596 149.098 16.3953C149.112 16.5174 149.119 16.7141 149.119 16.9855C149.133 17.2569 149.147 17.5283 149.161 17.7997C149.161 17.7997 149.182 18.3086 149.225 19.3263C149.239 19.5299 149.331 19.6656 149.501 19.7334C150.236 19.9912 151.317 20.5951 152.745 21.545C152.915 21.6671 153 21.8028 153 21.9521C153 22.1013 152.929 22.2438 152.788 22.3795C152.42 22.7323 152.074 23.2208 151.749 23.845C151.636 24.0486 151.501 24.1504 151.346 24.1504C151.19 24.1504 151.042 24.0893 150.9 23.9672C150.646 23.7365 150.434 23.5669 150.264 23.4583C150.094 23.3497 149.96 23.2548 149.861 23.1733C149.607 23.0105 149.437 22.9291 149.352 22.9291C149.239 22.9291 149.154 23.0173 149.098 23.1937C148.673 24.5914 147.479 25.2902 145.513 25.2902C145.329 25.2902 145.139 25.2834 144.941 25.2699C143.852 25.2156 142.954 24.8899 142.247 24.2928C141.554 23.6958 141.208 22.9427 141.208 22.0335C141.208 22.0199 141.208 22.0063 141.208 21.9928V21.9724C141.264 20.9818 141.759 20.2151 142.693 19.6723C143.484 19.1974 144.41 18.9599 145.471 18.9599H145.916L146.128 18.9803L146.107 17.5962L146.044 16.3749C146.015 16.0899 145.867 15.9475 145.598 15.9475C145.584 15.9475 145.513 15.9542 145.386 15.9678C145.259 15.9678 145.068 15.9678 144.813 15.9678ZM137.921 10.3296C138.034 10.2482 138.147 10.2075 138.26 10.2075C138.373 10.2075 138.472 10.221 138.557 10.2482L139.935 10.5535C140.176 10.6213 140.353 10.7435 140.466 10.9199C140.55 11.042 140.593 11.1777 140.593 11.327C140.593 11.3948 140.586 11.4627 140.572 11.5305C140.36 12.3447 140.225 13.3692 140.169 14.604C140.07 16.3953 140.02 17.8811 140.02 19.0617C140.02 21.2464 140.133 22.9359 140.36 24.13C140.374 24.1979 140.381 24.2453 140.381 24.2725C140.381 24.2996 140.381 24.32 140.381 24.3335C140.381 24.4964 140.338 24.6389 140.254 24.761C140.126 24.9238 139.942 25.0324 139.702 25.0867L138.26 25.3106C138.203 25.3241 138.147 25.3309 138.09 25.3309C137.935 25.3309 137.786 25.2902 137.645 25.2088C137.461 25.0731 137.355 24.8967 137.327 24.6796C137.199 23.3905 137.129 22.3252 137.115 21.4839C137.1 20.6426 137.093 19.8623 137.093 19.1431C137.093 15.3979 137.256 12.6364 137.581 10.8588C137.624 10.6145 137.737 10.4381 137.921 10.3296ZM145.11 21.4839C144.842 21.4839 144.615 21.5314 144.432 21.6264C144.234 21.7214 144.135 21.8774 144.135 22.0945C144.135 22.2438 144.213 22.3592 144.368 22.4406C144.58 22.5627 144.863 22.6238 145.216 22.6238C145.57 22.6238 145.81 22.5627 145.937 22.4406C146.079 22.3049 146.164 22.0606 146.192 21.7078C146.192 21.6671 146.185 21.64 146.171 21.6264C146.157 21.5992 146.128 21.5857 146.086 21.5857L145.28 21.4839C145.223 21.4839 145.167 21.4839 145.11 21.4839Z" fill="white"/>
<defs>
<clipPath id="clip0_278_58">
<rect width="165" height="96" fill="white" transform="translate(213)"/>
</clipPath>
</defs>
</svg>
