<svg width="32" height="32" viewBox="0 0 32 32" fill="none" xmlns="http://www.w3.org/2000/svg">
<g id="Frame">
<path id="Vector" d="M22.7075 16.7076L12.7075 26.7076C12.5676 26.8476 12.3894 26.9429 12.1953 26.9816C12.0012 27.0202 11.8 27.0004 11.6172 26.9247C11.4344 26.8489 11.2782 26.7206 11.1683 26.556C11.0584 26.3914 10.9998 26.198 11 26.0001V6.00006C10.9998 5.80216 11.0584 5.60867 11.1683 5.44407C11.2782 5.27948 11.4344 5.15119 11.6172 5.07543C11.8 4.99968 12.0012 4.97988 12.1953 5.01853C12.3894 5.05718 12.5676 5.15254 12.7075 5.29256L22.7075 15.2926C22.8005 15.3854 22.8742 15.4957 22.9246 15.6171C22.9749 15.7385 23.0008 15.8686 23.0008 16.0001C23.0008 16.1315 22.9749 16.2616 22.9246 16.383C22.8742 16.5044 22.8005 16.6147 22.7075 16.7076Z" fill="#CEBA6E"/>
</g>
</svg>
